Varta-Regular.ufo
<glyph name="zero" format="1">
  <advance width="1017"/>
  <unicode hex="0030"/>
  <outline>
    <contour>
      <point x="508" y="-25" type="curve" name="hr00" smooth="yes"/>
      <point x="779" y="-25"/>
      <point x="927" y="232"/>
      <point x="927" y="678" type="curve" smooth="yes"/>
      <point x="927" y="1124"/>
      <point x="779" y="1368"/>
      <point x="508" y="1368" type="curve" smooth="yes"/>
      <point x="236" y="1368"/>
      <point x="90" y="1124"/>
      <point x="90" y="678" type="curve" smooth="yes"/>
      <point x="90" y="232"/>
      <point x="236" y="-25"/>
    </contour>
    <contour>
      <point x="508" y="110" type="curve" smooth="yes"/>
      <point x="348" y="110"/>
      <point x="252" y="287"/>
      <point x="252" y="678" type="curve" smooth="yes"/>
      <point x="252" y="1067"/>
      <point x="348" y="1235"/>
      <point x="508" y="1235" type="curve" smooth="yes"/>
      <point x="668" y="1235"/>
      <point x="765" y="1067"/>
      <point x="765" y="678" type="curve" smooth="yes"/>
      <point x="765" y="287"/>
      <point x="668" y="110"/>
    </contour>
  </outline>
</glyph>
<glyph name="six" format="1">
  <advance width="1017"/>
  <unicode hex="0036"/>
  <outline>
    <contour>
      <point x="549" y="108" type="curve" name="hr00" smooth="yes"/>
      <point x="381" y="108"/>
      <point x="281" y="276"/>
      <point x="260" y="540" type="curve"/>
      <point x="349" y="664"/>
      <point x="452" y="713"/>
      <point x="535" y="713" type="curve" smooth="yes"/>
      <point x="697" y="713"/>
      <point x="777" y="602"/>
      <point x="777" y="398" type="curve" smooth="yes"/>
      <point x="777" y="226"/>
      <point x="678" y="108"/>
    </contour>
    <contour>
      <point x="910" y="1239" type="line"/>
      <point x="837" y="1319"/>
      <point x="736" y="1368"/>
      <point x="596" y="1368" type="curve" smooth="yes"/>
      <point x="336" y="1368"/>
      <point x="98" y="1168"/>
      <point x="98" y="634" type="curve" smooth="yes"/>
      <point x="98" y="205"/>
      <point x="292" y="-25"/>
      <point x="549" y="-25" type="curve" smooth="yes"/>
      <point x="759" y="-25"/>
      <point x="935" y="148"/>
      <point x="935" y="398" type="curve" smooth="yes"/>
      <point x="935" y="700"/>
      <point x="787" y="838"/>
      <point x="562" y="838" type="curve" smooth="yes"/>
      <point x="456" y="838"/>
      <point x="339" y="774"/>
      <point x="256" y="674" type="curve"/>
      <point x="264" y="1100"/>
      <point x="419" y="1229"/>
      <point x="602" y="1229" type="curve" smooth="yes"/>
      <point x="684" y="1229"/>
      <point x="764" y="1200"/>
      <point x="817" y="1135" type="curve"/>
    </contour>
  </outline>
</glyph>
<glyph name="nine" format="1">
  <advance width="1017"/>
  <unicode hex="0039"/>
  <outline>
    <contour>
      <point x="481" y="629" type="curve" name="hr00" smooth="yes"/>
      <point x="318" y="629"/>
      <point x="238" y="761"/>
      <point x="238" y="932" type="curve" smooth="yes"/>
      <point x="238" y="1104"/>
      <point x="344" y="1237"/>
      <point x="477" y="1237" type="curve" smooth="yes"/>
      <point x="654" y="1237"/>
      <point x="757" y="1093"/>
      <point x="757" y="794" type="curve"/>
      <point x="668" y="669"/>
      <point x="565" y="629"/>
    </contour>
    <contour>
      <point x="153" y="105" type="line"/>
      <point x="244" y="17"/>
      <point x="339" y="-25"/>
      <point x="477" y="-25" type="curve" smooth="yes"/>
      <point x="738" y="-25"/>
      <point x="917" y="193"/>
      <point x="917" y="698" type="curve" smooth="yes"/>
      <point x="917" y="1186"/>
      <point x="742" y="1368"/>
      <point x="475" y="1368" type="curve" smooth="yes"/>
      <point x="266" y="1368"/>
      <point x="82" y="1182"/>
      <point x="82" y="932" type="curve" smooth="yes"/>
      <point x="82" y="664"/>
      <point x="227" y="503"/>
      <point x="453" y="503" type="curve" smooth="yes"/>
      <point x="561" y="503"/>
      <point x="688" y="557"/>
      <point x="761" y="662" type="curve"/>
      <point x="755" y="262"/>
      <point x="656" y="113"/>
      <point x="472" y="113" type="curve" smooth="yes"/>
      <point x="390" y="113"/>
      <point x="278" y="156"/>
      <point x="237" y="210" type="curve"/>
    </contour>
  </outline>
</glyph>
<glyph name="equal" format="1">
  <advance width="1017"/>
  <unicode hex="003D"/>
  <outline>
    <contour>
      <point x="70" y="831" type="line" name="hr00"/>
      <point x="947" y="831" type="line"/>
      <point x="947" y="957" type="line"/>
      <point x="70" y="957" type="line"/>
    </contour>
    <contour>
      <point x="70" y="394" type="line"/>
      <point x="947" y="394" type="line"/>
      <point x="947" y="520" type="line"/>
      <point x="70" y="520" type="line"/>
    </contour>
  </outline>
</glyph>
<glyph name="C" format="1">
  <advance width="1158"/>
  <unicode hex="0043"/>
  <outline>
    <contour>
      <point x="100" y="672" type="curve" name="hr00" smooth="yes"/>
      <point x="100" y="221"/>
      <point x="347" y="-25"/>
      <point x="685" y="-25" type="curve" smooth="yes"/>
      <point x="855" y="-25"/>
      <point x="988" y="44"/>
      <point x="1093" y="167" type="curve"/>
      <point x="997" y="270" type="line"/>
      <point x="911" y="174"/>
      <point x="816" y="123"/>
      <point x="689" y="123" type="curve" smooth="yes"/>
      <point x="432" y="123"/>
      <point x="274" y="327"/>
      <point x="274" y="678" type="curve" smooth="yes"/>
      <point x="274" y="1023"/>
      <point x="440" y="1221"/>
      <point x="697" y="1221" type="curve" smooth="yes"/>
      <point x="808" y="1221"/>
      <point x="899" y="1174"/>
      <point x="971" y="1098" type="curve"/>
      <point x="1066" y="1205" type="line"/>
      <point x="986" y="1293"/>
      <point x="855" y="1368"/>
      <point x="695" y="1368" type="curve" smooth="yes"/>
      <point x="351" y="1368"/>
      <point x="100" y="1119"/>
    </contour>
    <contour>
      <point x="596" y="1050" type="move" name="top"/>
    </contour>
  </outline>
</glyph>
<glyph name="P" format="1">
  <advance width="1167"/>
  <unicode hex="0050"/>
  <outline>
    <contour>
      <point x="178" y="0" type="line" name="hr00"/>
      <point x="348" y="0" type="line"/>
      <point x="348" y="514" type="line"/>
      <point x="604" y="514" type="line"/>
      <point x="907" y="514"/>
      <point x="1086" y="659"/>
      <point x="1086" y="941" type="curve" smooth="yes"/>
      <point x="1086" y="1235"/>
      <point x="908" y="1343"/>
      <point x="601" y="1343" type="curve" smooth="yes"/>
      <point x="178" y="1343" type="line"/>
    </contour>
    <contour>
      <point x="348" y="652" type="line"/>
      <point x="348" y="1208" type="line"/>
      <point x="578" y="1208" type="line"/>
      <point x="821" y="1208"/>
      <point x="919" y="1137"/>
      <point x="919" y="941" type="curve" smooth="yes"/>
      <point x="919" y="750"/>
      <point x="828" y="652"/>
      <point x="581" y="652" type="curve" smooth="yes"/>
    </contour>
    <contour>
      <point x="632" y="1050" type="move" name="top"/>
    </contour>
  </outline>
</glyph>
<glyph name="h" format="1">
  <advance width="1113"/>
  <unicode hex="0068"/>
  <outline>
    <contour>
      <point x="169" y="0" type="line" name="hr00"/>
      <point x="335" y="0" type="line"/>
      <point x="335" y="722" type="line"/>
      <point x="435" y="822"/>
      <point x="506" y="875"/>
      <point x="609" y="875" type="curve" smooth="yes"/>
      <point x="744" y="875"/>
      <point x="798" y="800"/>
      <point x="798" y="612" type="curve" smooth="yes"/>
      <point x="798" y="0" type="line"/>
      <point x="964" y="0" type="line"/>
      <point x="964" y="635" type="line"/>
      <point x="964" y="889"/>
      <point x="876" y="1020"/>
      <point x="661" y="1020" type="curve" smooth="yes"/>
      <point x="523" y="1020"/>
      <point x="423" y="946"/>
      <point x="329" y="855" type="curve"/>
      <point x="335" y="1061" type="line"/>
      <point x="335" y="1458" type="line"/>
      <point x="169" y="1458" type="line"/>
    </contour>
    <contour>
      <point x="566" y="1050" type="move" name="top"/>
    </contour>
  </outline>
</glyph>
<glyph name="q" format="1">
  <advance width="1125"/>
  <unicode hex="0071"/>
  <outline>
    <contour>
      <point x="96" y="494" type="curve" name="hr01" smooth="yes"/>
      <point x="96" y="151"/>
      <point x="250" y="-25"/>
      <point x="509" y="-25" type="curve" smooth="yes"/>
      <point x="629" y="-25"/>
      <point x="728" y="37"/>
      <point x="808" y="111" type="curve"/>
      <point x="800" y="-66" type="line"/>
      <point x="800" y="-421" type="line"/>
      <point x="968" y="-421" type="line"/>
      <point x="968" y="995" type="line" name="hr02"/>
      <point x="834" y="995" type="line"/>
      <point x="818" y="901" type="line"/>
      <point x="814" y="901" type="line"/>
      <point x="724" y="979"/>
      <point x="649" y="1020"/>
      <point x="530" y="1020" type="curve" name="hr03" smooth="yes"/>
      <point x="295" y="1020"/>
      <point x="96" y="826"/>
    </contour>
    <contour>
      <point x="268" y="496" type="curve" smooth="yes"/>
      <point x="268" y="730"/>
      <point x="393" y="880"/>
      <point x="560" y="880" type="curve" smooth="yes"/>
      <point x="645" y="880"/>
      <point x="715" y="851"/>
      <point x="800" y="775" type="curve"/>
      <point x="800" y="253" type="line"/>
      <point x="717" y="161"/>
      <point x="643" y="115"/>
      <point x="547" y="115" type="curve" smooth="yes"/>
      <point x="366" y="115"/>
      <point x="268" y="249"/>
    </contour>
    <contour>
      <point x="532" y="1050" type="move" name="top"/>
    </contour>
  </outline>
</glyph>
<glyph name="r" format="1">
  <advance width="709"/>
  <unicode hex="0072"/>
  <outline>
    <contour>
      <point x="169" y="0" type="line" name="hr01"/>
      <point x="335" y="0" type="line"/>
      <point x="335" y="640" type="line"/>
      <point x="402" y="808"/>
      <point x="503" y="869"/>
      <point x="587" y="869" type="curve" smooth="yes"/>
      <point x="628" y="869"/>
      <point x="650" y="863"/>
      <point x="683" y="853" type="curve"/>
      <point x="715" y="999" type="line" name="hr02"/>
      <point x="682" y="1014"/>
      <point x="652" y="1020"/>
      <point x="609" y="1020" type="curve" name="hr03" smooth="yes"/>
      <point x="497" y="1020"/>
      <point x="394" y="940"/>
      <point x="327" y="815" type="curve"/>
      <point x="321" y="815" type="line"/>
      <point x="306" y="995" type="line" name="hr04"/>
      <point x="169" y="995" type="line"/>
    </contour>
    <contour>
      <point x="442" y="1050" type="move" name="top"/>
    </contour>
  </outline>
</glyph>
<glyph name="asciitilde" format="1">
  <advance width="1017"/>
  <unicode hex="007E"/>
  <outline>
    <contour>
      <point x="167" y="574" type="line" name="hr00"/>
      <point x="214" y="673"/>
      <point x="263" y="699"/>
      <point x="323" y="699" type="curve" smooth="yes"/>
      <point x="438" y="699"/>
      <point x="529" y="526"/>
      <point x="691" y="526" type="curve" smooth="yes"/>
      <point x="792" y="526"/>
      <point x="869" y="581"/>
      <point x="943" y="709" type="curve"/>
      <point x="850" y="777" type="line"/>
      <point x="808" y="689"/>
      <point x="754" y="652"/>
      <point x="694" y="652" type="curve" smooth="yes"/>
      <point x="579" y="652"/>
      <point x="485" y="825"/>
      <point x="324" y="825" type="curve" smooth="yes"/>
      <point x="236" y="825"/>
      <point x="138" y="780"/>
      <point x="74" y="641" type="curve"/>
    </contour>
  </outline>
</glyph>
<glyph name="copyright" format="1">
  <advance width="1523"/>
  <unicode hex="00A9"/>
  <outline>
    <contour>
      <point x="85" y="664" type="curve" name="hr00" smooth="yes"/>
      <point x="85" y="232"/>
      <point x="400" y="-44"/>
      <point x="766" y="-44" type="curve" smooth="yes"/>
      <point x="1133" y="-44"/>
      <point x="1447" y="232"/>
      <point x="1447" y="664" type="curve" smooth="yes"/>
      <point x="1447" y="1093"/>
      <point x="1133" y="1362"/>
      <point x="766" y="1362" type="curve" smooth="yes"/>
      <point x="400" y="1362"/>
      <point x="85" y="1093"/>
    </contour>
    <contour>
      <point x="185" y="664" type="curve" smooth="yes"/>
      <point x="185" y="1032"/>
      <point x="449" y="1276"/>
      <point x="766" y="1276" type="curve" smooth="yes"/>
      <point x="1085" y="1276"/>
      <point x="1349" y="1032"/>
      <point x="1349" y="664" type="curve" smooth="yes"/>
      <point x="1349" y="293"/>
      <point x="1085" y="46"/>
      <point x="766" y="46" type="curve" smooth="yes"/>
      <point x="449" y="46"/>
      <point x="185" y="293"/>
    </contour>
    <contour>
      <point x="406" y="662" type="curve" smooth="yes"/>
      <point x="406" y="408"/>
      <point x="571" y="256"/>
      <point x="778" y="256" type="curve" smooth="yes"/>
      <point x="901" y="256"/>
      <point x="979" y="307"/>
      <point x="1055" y="373" type="curve"/>
      <point x="993" y="458" type="line"/>
      <point x="934" y="407"/>
      <point x="870" y="368"/>
      <point x="784" y="368" type="curve" smooth="yes"/>
      <point x="636" y="368"/>
      <point x="540" y="480"/>
      <point x="540" y="662" type="curve" smooth="yes"/>
      <point x="540" y="822"/>
      <point x="640" y="937"/>
      <point x="791" y="937" type="curve" smooth="yes"/>
      <point x="862" y="937"/>
      <point x="913" y="906"/>
      <point x="969" y="853" type="curve"/>
      <point x="1040" y="932" type="line"/>
      <point x="975" y="997"/>
      <point x="899" y="1049"/>
      <point x="784" y="1049" type="curve" smooth="yes"/>
      <point x="586" y="1049"/>
      <point x="406" y="899"/>
    </contour>
  </outline>
</glyph>
<glyph name="uni00AD" format="1">
  <advance width="636"/>
  <unicode hex="00AD"/>
  <outline>
    <contour>
      <point x="84" y="450" type="line"/>
      <point x="554" y="450" type="line"/>
      <point x="554" y="577" type="line"/>
      <point x="84" y="577" type="line"/>
    </contour>
  </outline>
</glyph>
<glyph name="registered" format="1">
  <advance width="864"/>
  <unicode hex="00AE"/>
  <outline>
    <contour>
      <point x="431" y="653" type="curve" name="hr00" smooth="yes"/>
      <point x="644" y="653"/>
      <point x="818" y="817"/>
      <point x="818" y="1057" type="curve" smooth="yes"/>
      <point x="818" y="1296"/>
      <point x="644" y="1460"/>
      <point x="431" y="1460" type="curve" smooth="yes"/>
      <point x="221" y="1460"/>
      <point x="47" y="1296"/>
      <point x="47" y="1057" type="curve" smooth="yes"/>
      <point x="47" y="817"/>
      <point x="221" y="653"/>
    </contour>
    <contour>
      <point x="431" y="729" type="curve" smooth="yes"/>
      <point x="259" y="729"/>
      <point x="128" y="862"/>
      <point x="128" y="1057" type="curve" smooth="yes"/>
      <point x="128" y="1249"/>
      <point x="259" y="1386"/>
      <point x="431" y="1386" type="curve" smooth="yes"/>
      <point x="603" y="1386"/>
      <point x="737" y="1249"/>
      <point x="737" y="1057" type="curve" smooth="yes"/>
      <point x="737" y="862"/>
      <point x="603" y="729"/>
    </contour>
    <contour>
      <point x="285" y="854" type="line"/>
      <point x="368" y="854" type="line"/>
      <point x="368" y="997" type="line"/>
      <point x="452" y="997" type="line"/>
      <point x="524" y="854" type="line"/>
      <point x="617" y="854" type="line"/>
      <point x="523" y="1024" type="line"/>
      <point x="568" y="1040"/>
      <point x="599" y="1087"/>
      <point x="599" y="1137" type="curve" smooth="yes"/>
      <point x="599" y="1235"/>
      <point x="525" y="1270"/>
      <point x="439" y="1270" type="curve" smooth="yes"/>
      <point x="285" y="1270" type="line"/>
    </contour>
    <contour>
      <point x="368" y="1063" type="line"/>
      <point x="368" y="1201" type="line"/>
      <point x="425" y="1201" type="line"/>
      <point x="487" y="1201"/>
      <point x="510" y="1174"/>
      <point x="510" y="1133" type="curve" smooth="yes"/>
      <point x="510" y="1087"/>
      <point x="476" y="1063"/>
      <point x="421" y="1063" type="curve" smooth="yes"/>
    </contour>
  </outline>
</glyph>
<glyph name="degree" format="1">
  <advance width="676"/>
  <unicode hex="00B0"/>
  <outline>
    <contour>
      <point x="339" y="880" type="curve" name="hr00" smooth="yes"/>
      <point x="476" y="880"/>
      <point x="595" y="982"/>
      <point x="595" y="1139" type="curve" smooth="yes"/>
      <point x="595" y="1300"/>
      <point x="476" y="1403"/>
      <point x="339" y="1403" type="curve" smooth="yes"/>
      <point x="203" y="1403"/>
      <point x="84" y="1300"/>
      <point x="84" y="1139" type="curve" smooth="yes"/>
      <point x="84" y="982"/>
      <point x="203" y="880"/>
    </contour>
    <contour>
      <point x="339" y="973" type="curve" smooth="yes"/>
      <point x="249" y="973"/>
      <point x="185" y="1042"/>
      <point x="185" y="1139" type="curve" smooth="yes"/>
      <point x="185" y="1240"/>
      <point x="249" y="1310"/>
      <point x="339" y="1310" type="curve" smooth="yes"/>
      <point x="430" y="1310"/>
      <point x="494" y="1240"/>
      <point x="494" y="1139" type="curve" smooth="yes"/>
      <point x="494" y="1042"/>
      <point x="430" y="973"/>
    </contour>
  </outline>
</glyph>
<glyph name="three.sups" format="1">
  <advance width="751"/>
  <unicode hex="00B3"/>
  <outline>
    <contour>
      <point x="72" y="1032" type="line" name="hr01"/>
      <point x="133" y="942"/>
      <point x="240" y="877"/>
      <point x="369" y="877" type="curve" smooth="yes"/>
      <point x="524" y="877"/>
      <point x="652" y="969"/>
      <point x="652" y="1116" type="curve" smooth="yes"/>
      <point x="652" y="1223"/>
      <point x="570" y="1290"/>
      <point x="480" y="1313" type="curve" name="hr02"/>
      <point x="562" y="1352"/>
      <point x="620" y="1415"/>
      <point x="620" y="1509" type="curve" name="hr03" smooth="yes"/>
      <point x="620" y="1645"/>
      <point x="504" y="1724"/>
      <point x="367" y="1724" type="curve" smooth="yes"/>
      <point x="256" y="1724"/>
      <point x="174" y="1673"/>
      <point x="104" y="1593" type="curve"/>
      <point x="184" y="1525" type="line"/>
      <point x="229" y="1580"/>
      <point x="287" y="1621"/>
      <point x="346" y="1621" type="curve" smooth="yes"/>
      <point x="434" y="1621"/>
      <point x="493" y="1570"/>
      <point x="493" y="1493" type="curve" smooth="yes"/>
      <point x="493" y="1411"/>
      <point x="412" y="1350"/>
      <point x="274" y="1350" type="curve"/>
      <point x="274" y="1266" type="line"/>
      <point x="430" y="1266"/>
      <point x="523" y="1217"/>
      <point x="523" y="1124" type="curve" name="hr04" smooth="yes"/>
      <point x="523" y="1031"/>
      <point x="449" y="980"/>
      <point x="362" y="980" type="curve" smooth="yes"/>
      <point x="279" y="980"/>
      <point x="209" y="1025"/>
      <point x="160" y="1099" type="curve"/>
    </contour>
  </outline>
</glyph>
<glyph name="ae" format="1">
  <advance width="1607"/>
  <unicode hex="00E6"/>
  <outline>
    <contour>
      <point x="284" y="269" type="curve" name="hr01" smooth="yes"/>
      <point x="284" y="397"/>
      <point x="405" y="482"/>
      <point x="722" y="514" type="curve"/>
      <point x="722" y="470" type="line"/>
      <point x="722" y="393"/>
      <point x="738" y="315"/>
      <point x="761" y="263" type="curve"/>
      <point x="670" y="165"/>
      <point x="551" y="110"/>
      <point x="458" y="110" type="curve" smooth="yes"/>
      <point x="359" y="110"/>
      <point x="284" y="157"/>
    </contour>
    <contour>
      <point x="229" y="792" type="line" name="hr02"/>
      <point x="307" y="844"/>
      <point x="410" y="882"/>
      <point x="518" y="882" type="curve" smooth="yes"/>
      <point x="683" y="882"/>
      <point x="722" y="751"/>
      <point x="722" y="624" type="curve"/>
      <point x="308" y="596"/>
      <point x="119" y="475"/>
      <point x="119" y="258" type="curve" smooth="yes"/>
      <point x="119" y="79"/>
      <point x="245" y="-25"/>
      <point x="412" y="-25" type="curve" smooth="yes"/>
      <point x="539" y="-25"/>
      <point x="683" y="41"/>
      <point x="817" y="162" type="curve"/>
      <point x="893" y="63"/>
      <point x="1001" y="-25"/>
      <point x="1167" y="-25" type="curve" smooth="yes"/>
      <point x="1304" y="-25"/>
      <point x="1405" y="23"/>
      <point x="1491" y="78" type="curve"/>
      <point x="1431" y="194" type="line"/>
      <point x="1357" y="146"/>
      <point x="1284" y="112"/>
      <point x="1188" y="112" type="curve" smooth="yes"/>
      <point x="1017" y="112"/>
      <point x="886" y="250"/>
      <point x="878" y="458" type="curve"/>
      <point x="1524" y="458" type="line"/>
      <point x="1528" y="482"/>
      <point x="1530" y="514"/>
      <point x="1530" y="551" type="curve" smooth="yes"/>
      <point x="1530" y="836"/>
      <point x="1414" y="1020"/>
      <point x="1171" y="1020" type="curve" name="hr03" smooth="yes"/>
      <point x="1016" y="1020"/>
      <point x="901" y="937"/>
      <point x="823" y="808" type="curve"/>
      <point x="782" y="937"/>
      <point x="705" y="1020"/>
      <point x="539" y="1020" type="curve" smooth="yes"/>
      <point x="391" y="1020"/>
      <point x="254" y="966"/>
      <point x="163" y="907" type="curve"/>
    </contour>
    <contour>
      <point x="878" y="568" type="line"/>
      <point x="896" y="764"/>
      <point x="1010" y="888"/>
      <point x="1167" y="888" type="curve" smooth="yes"/>
      <point x="1318" y="888"/>
      <point x="1384" y="775"/>
      <point x="1384" y="568" type="curve"/>
    </contour>
    <contour>
      <point x="824" y="1050" type="move" name="top"/>
    </contour>
  </outline>
</glyph>
<glyph name="gbreve" format="1">
  <advance width="1031"/>
  <unicode hex="011F"/>
  <outline>
    <contour>
      <point x="500" y="1178" type="curve" name="hr00" smooth="yes"/>
      <point x="676" y="1178"/>
      <point x="750" y="1317"/>
      <point x="758" y="1438" type="curve"/>
      <point x="655" y="1438" type="line"/>
      <point x="644" y="1357"/>
      <point x="596" y="1281"/>
      <point x="500" y="1281" type="curve" smooth="yes"/>
      <point x="404" y="1281"/>
      <point x="356" y="1357"/>
      <point x="345" y="1438" type="curve"/>
      <point x="242" y="1438" type="line"/>
      <point x="250" y="1317"/>
      <point x="324" y="1178"/>
    </contour>
    <component base="g"/>
  </outline>
</glyph>
<glyph name="Hbar" format="1">
  <advance width="1396"/>
  <unicode hex="0126"/>
  <outline>
    <contour>
      <point x="1011" y="779" type="line" name="hr00"/>
      <point x="383" y="779" type="line"/>
      <point x="383" y="1008" type="line"/>
      <point x="1011" y="1008" type="line"/>
    </contour>
    <contour>
      <point x="1334" y="1103" type="line"/>
      <point x="1181" y="1103" type="line"/>
      <point x="1181" y="1343" type="line"/>
      <point x="1011" y="1343" type="line"/>
      <point x="1011" y="1103" type="line"/>
      <point x="383" y="1103" type="line"/>
      <point x="383" y="1343" type="line"/>
      <point x="215" y="1343" type="line"/>
      <point x="215" y="1103" type="line"/>
      <point x="61" y="1093" type="line"/>
      <point x="61" y="1008" type="line"/>
      <point x="215" y="1008" type="line"/>
      <point x="215" y="0" type="line"/>
      <point x="383" y="0" type="line"/>
      <point x="383" y="634" type="line"/>
      <point x="1011" y="634" type="line"/>
      <point x="1011" y="0" type="line"/>
      <point x="1181" y="0" type="line"/>
      <point x="1181" y="1008" type="line"/>
      <point x="1334" y="1008" type="line"/>
    </contour>
  </outline>
</glyph>
<glyph name="oe" format="1">
  <advance width="1718"/>
  <unicode hex="0153"/>
  <outline>
    <contour>
      <point x="264" y="496" type="curve" name="hr01" smooth="yes"/>
      <point x="264" y="726"/>
      <point x="380" y="882"/>
      <point x="545" y="882" type="curve" smooth="yes"/>
      <point x="710" y="882"/>
      <point x="824" y="726"/>
      <point x="824" y="496" type="curve" smooth="yes"/>
      <point x="824" y="267"/>
      <point x="710" y="113"/>
      <point x="545" y="113" type="curve" smooth="yes"/>
      <point x="380" y="113"/>
      <point x="264" y="267"/>
    </contour>
    <contour>
      <point x="94" y="496" type="curve" smooth="yes"/>
      <point x="94" y="166"/>
      <point x="301" y="-25"/>
      <point x="541" y="-25" type="curve" smooth="yes"/>
      <point x="705" y="-25"/>
      <point x="829" y="59"/>
      <point x="907" y="224" type="curve"/>
      <point x="983" y="70"/>
      <point x="1118" y="-25"/>
      <point x="1275" y="-25" type="curve" smooth="yes"/>
      <point x="1410" y="-25"/>
      <point x="1517" y="23"/>
      <point x="1602" y="78" type="curve"/>
      <point x="1541" y="194" type="line"/>
      <point x="1467" y="146"/>
      <point x="1390" y="112"/>
      <point x="1295" y="112" type="curve" smooth="yes"/>
      <point x="1124" y="112"/>
      <point x="988" y="250"/>
      <point x="981" y="458" type="curve"/>
      <point x="1635" y="458" type="line"/>
      <point x="1639" y="482"/>
      <point x="1641" y="514"/>
      <point x="1641" y="551" type="curve" smooth="yes"/>
      <point x="1641" y="836"/>
      <point x="1501" y="1020"/>
      <point x="1256" y="1020" type="curve" smooth="yes"/>
      <point x="1110" y="1020"/>
      <point x="981" y="925"/>
      <point x="905" y="769" type="curve"/>
      <point x="834" y="931"/>
      <point x="696" y="1020"/>
      <point x="545" y="1020" type="curve" smooth="yes"/>
      <point x="303" y="1020"/>
      <point x="94" y="829"/>
    </contour>
    <contour>
      <point x="981" y="568" type="line"/>
      <point x="999" y="764"/>
      <point x="1114" y="888"/>
      <point x="1252" y="888" type="curve" name="hr02" smooth="yes"/>
      <point x="1404" y="888"/>
      <point x="1495" y="775"/>
      <point x="1495" y="568" type="curve"/>
    </contour>
    <contour>
      <point x="867" y="1050" type="move" name="top"/>
    </contour>
  </outline>
</glyph>
<glyph name="uni0163" format="1">
  <advance width="690"/>
  <unicode hex="0163"/>
  <outline>
    <contour>
      <point x="499" y="-25" type="line" name="hr01"/>
      <point x="511" y="-24"/>
      <point x="524" y="-22"/>
      <point x="537" y="-20" type="curve" smooth="yes"/>
      <point x="581" y="-13"/>
      <point x="626" y="0"/>
      <point x="665" y="12" type="curve" name="hr02"/>
      <point x="632" y="138" type="line"/>
      <point x="599" y="126"/>
      <point x="554" y="112"/>
      <point x="519" y="112" type="curve" smooth="yes"/>
      <point x="404" y="112"/>
      <point x="365" y="181"/>
      <point x="365" y="304" type="curve" smooth="yes"/>
      <point x="365" y="859" type="line"/>
      <point x="634" y="859" type="line"/>
      <point x="634" y="995" type="line"/>
      <point x="365" y="995" type="line"/>
      <point x="365" y="1274" type="line"/>
      <point x="225" y="1274" type="line"/>
      <point x="205" y="995" type="line"/>
      <point x="49" y="985" type="line"/>
      <point x="49" y="859" type="line"/>
      <point x="197" y="859" type="line"/>
      <point x="197" y="306" type="line"/>
      <point x="197" y="140"/>
      <point x="248" y="18"/>
      <point x="393" y="-14" type="curve" name="hr03"/>
      <point x="322" y="-154" type="line"/>
      <point x="406" y="-174"/>
      <point x="453" y="-201"/>
      <point x="453" y="-254" type="curve" smooth="yes"/>
      <point x="453" y="-309"/>
      <point x="377" y="-338"/>
      <point x="270" y="-352" type="curve"/>
      <point x="287" y="-436" type="line"/>
      <point x="439" y="-422"/>
      <point x="581" y="-367"/>
      <point x="581" y="-248" type="curve" smooth="yes"/>
      <point x="581" y="-164"/>
      <point x="527" y="-125"/>
      <point x="460" y="-102" type="curve" name="hr04"/>
    </contour>
  </outline>
</glyph>
<glyph name="uring" format="1">
  <advance width="1113"/>
  <unicode hex="016F"/>
  <outline>
    <contour>
      <point x="556" y="1110" type="curve" name="hr00" smooth="yes"/>
      <point x="667" y="1110"/>
      <point x="745" y="1186"/>
      <point x="745" y="1299" type="curve" smooth="yes"/>
      <point x="745" y="1412"/>
      <point x="667" y="1488"/>
      <point x="556" y="1488" type="curve" smooth="yes"/>
      <point x="445" y="1488"/>
      <point x="367" y="1412"/>
      <point x="367" y="1299" type="curve" smooth="yes"/>
      <point x="367" y="1186"/>
      <point x="445" y="1110"/>
    </contour>
    <contour>
      <point x="556" y="1185" type="curve" smooth="yes"/>
      <point x="501" y="1185"/>
      <point x="458" y="1230"/>
      <point x="458" y="1299" type="curve" smooth="yes"/>
      <point x="458" y="1368"/>
      <point x="501" y="1413"/>
      <point x="556" y="1413" type="curve" smooth="yes"/>
      <point x="611" y="1413"/>
      <point x="654" y="1368"/>
      <point x="654" y="1299" type="curve" smooth="yes"/>
      <point x="654" y="1230"/>
      <point x="611" y="1185"/>
    </contour>
    <component base="u"/>
  </outline>
</glyph>
<glyph name="uni018F" format="1">
  <advance width="1358"/>
  <unicode hex="018F"/>
  <outline>
    <contour>
      <point x="1084" y="587" type="line" name="hr00"/>
      <point x="1058" y="298"/>
      <point x="901" y="119"/>
      <point x="683" y="119" type="curve" smooth="yes"/>
      <point x="471" y="119"/>
      <point x="322" y="296"/>
      <point x="303" y="587" type="curve"/>
    </contour>
    <contour>
      <point x="351" y="1096" type="line"/>
      <point x="431" y="1171"/>
      <point x="546" y="1225"/>
      <point x="680" y="1225" type="curve" smooth="yes"/>
      <point x="931" y="1225"/>
      <point x="1076" y="1033"/>
      <point x="1088" y="716" type="curve"/>
      <point x="135" y="716" type="line"/>
      <point x="133" y="698"/>
      <point x="131" y="680"/>
      <point x="131" y="666" type="curve" smooth="yes"/>
      <point x="131" y="252"/>
      <point x="349" y="-25"/>
      <point x="683" y="-25" type="curve" smooth="yes"/>
      <point x="1019" y="-25"/>
      <point x="1254" y="246"/>
      <point x="1254" y="676" type="curve" smooth="yes"/>
      <point x="1254" y="1106"/>
      <point x="1035" y="1368"/>
      <point x="691" y="1368" type="curve" smooth="yes"/>
      <point x="510" y="1368"/>
      <point x="367" y="1303"/>
      <point x="272" y="1210" type="curve"/>
    </contour>
  </outline>
</glyph>
<glyph name="uhorn" format="1">
  <advance width="1113"/>
  <unicode hex="01B0"/>
  <outline>
    <contour>
      <point x="965" y="1217" type="line" name="hr01"/>
      <point x="981" y="1190"/>
      <point x="993" y="1161"/>
      <point x="993" y="1130" type="curve" smooth="yes"/>
      <point x="993" y="1038"/>
      <point x="918" y="1006"/>
      <point x="821" y="995" type="curve"/>
      <point x="779" y="995" type="line"/>
      <point x="779" y="288" type="line"/>
      <point x="684" y="171"/>
      <point x="612" y="119"/>
      <point x="509" y="119" type="curve" smooth="yes"/>
      <point x="378" y="119"/>
      <point x="322" y="200"/>
      <point x="322" y="386" type="curve" smooth="yes"/>
      <point x="322" y="995" type="line"/>
      <point x="155" y="995" type="line"/>
      <point x="155" y="365" type="line"/>
      <point x="155" y="111"/>
      <point x="249" y="-25"/>
      <point x="459" y="-25" type="curve" smooth="yes"/>
      <point x="596" y="-25"/>
      <point x="694" y="47"/>
      <point x="786" y="156" type="curve"/>
      <point x="793" y="156" type="line"/>
      <point x="807" y="0" type="line" name="hr02"/>
      <point x="945" y="0" type="line"/>
      <point x="945" y="932" type="line"/>
      <point x="1036" y="958"/>
      <point x="1132" y="1018"/>
      <point x="1132" y="1143" type="curve" smooth="yes"/>
      <point x="1132" y="1193"/>
      <point x="1111" y="1238"/>
      <point x="1084" y="1275" type="curve"/>
    </contour>
  </outline>
</glyph>
<glyph name="h.sups" format="1">
  <advance width="749"/>
  <unicode hex="02B0"/>
  <outline>
    <contour>
      <point x="106" y="532" type="line" name="hr00"/>
      <point x="232" y="532" type="line"/>
      <point x="232" y="1004" type="line"/>
      <point x="298" y="1070"/>
      <point x="352" y="1101"/>
      <point x="406" y="1101" type="curve" smooth="yes"/>
      <point x="508" y="1101"/>
      <point x="530" y="1035"/>
      <point x="530" y="930" type="curve" smooth="yes"/>
      <point x="530" y="532" type="line"/>
      <point x="656" y="532" type="line"/>
      <point x="656" y="948" type="line"/>
      <point x="656" y="1102"/>
      <point x="601" y="1208"/>
      <point x="448" y="1208" type="curve" smooth="yes"/>
      <point x="359" y="1208"/>
      <point x="282" y="1157"/>
      <point x="226" y="1098" type="curve"/>
      <point x="232" y="1235" type="line"/>
      <point x="232" y="1493" type="line"/>
      <point x="106" y="1493" type="line"/>
    </contour>
  </outline>
</glyph>
<glyph name="circumflex" format="1">
  <advance width="1109"/>
  <unicode hex="02C6"/>
  <outline>
    <contour>
      <point x="294" y="1174" type="line" name="hr00"/>
      <point x="413" y="1174" type="line"/>
      <point x="551" y="1360" type="line"/>
      <point x="559" y="1360" type="line"/>
      <point x="696" y="1174" type="line"/>
      <point x="818" y="1174" type="line"/>
      <point x="624" y="1462" type="line"/>
      <point x="486" y="1462" type="line"/>
    </contour>
    <contour>
      <point x="556" y="1050" type="move" name="_top"/>
    </contour>
  </outline>
</glyph>
<glyph name="uni02CB" format="1">
  <advance width="460"/>
  <unicode hex="02CB"/>
  <outline>
    <contour>
      <point x="232" y="1174" type="line" name="hr00"/>
      <point x="359" y="1174" type="line"/>
      <point x="175" y="1462" type="line"/>
      <point x="1" y="1462" type="line"/>
    </contour>
    <contour>
      <point x="180" y="1050" type="move" name="_top"/>
    </contour>
  </outline>
</glyph>
<glyph name="uni0326" format="1">
  <advance width="0"/>
  <unicode hex="0326"/>
  <outline>
    <contour>
      <point x="-59" y="-98" type="curve" name="hr00"/>
      <point x="-96" y="-176" type="line"/>
      <point x="-38" y="-190"/>
      <point x="9" y="-213"/>
      <point x="9" y="-266" type="curve" smooth="yes"/>
      <point x="9" y="-319"/>
      <point x="-65" y="-346"/>
      <point x="-173" y="-360" type="curve"/>
      <point x="-157" y="-442" type="line"/>
      <point x="-2" y="-430"/>
      <point x="138" y="-375"/>
      <point x="138" y="-256" type="curve" smooth="yes"/>
      <point x="138" y="-164"/>
      <point x="79" y="-119"/>
    </contour>
    <contour>
      <point x="-18" y="1050" type="move" name="_top"/>
    </contour>
  </outline>
</glyph>
<glyph name="rVocalic-deva" format="1">
  <advance width="1475"/>
  <unicode hex="090B"/>
  <outline>
    <contour>
      <point x="734" y="505" type="line"/>
      <point x="744" y="591" type="line"/>
      <point x="531" y="876"/>
      <point x="426" y="925"/>
      <point x="303" y="929" type="curve" smooth="yes"/>
      <point x="204" y="932"/>
      <point x="129" y="896"/>
      <point x="65" y="856" type="curve"/>
      <point x="125" y="726" type="line"/>
      <point x="203" y="766"/>
      <point x="264" y="787"/>
      <point x="322" y="785" type="curve" smooth="yes"/>
      <point x="424" y="781"/>
      <point x="505" y="701"/>
      <point x="648" y="539" type="curve"/>
      <point x="653" y="599" type="line"/>
      <point x="144" y="240" type="line"/>
      <point x="235" y="124" type="line"/>
    </contour>
    <contour>
      <point x="823" y="-1" type="line"/>
      <point x="823" y="1174" type="line"/>
      <point x="667" y="1174" type="line"/>
      <point x="667" y="-1" type="line"/>
    </contour>
    <contour>
      <point x="1286" y="125"/>
      <point x="1352" y="232"/>
      <point x="1352" y="360" type="curve" smooth="yes"/>
      <point x="1352" y="502"/>
      <point x="1263" y="641"/>
      <point x="1087" y="822" type="curve"/>
      <point x="1030" y="757" type="line"/>
      <point x="1135" y="604"/>
      <point x="1203" y="491"/>
      <point x="1203" y="385" type="curve" smooth="yes"/>
      <point x="1203" y="291"/>
      <point x="1157" y="223"/>
      <point x="1042" y="164" type="curve"/>
      <point x="1121" y="50" type="line"/>
    </contour>
    <contour>
      <point x="962" y="545"/>
      <point x="1059" y="615"/>
      <point x="1155" y="685" type="curve" smooth="yes"/>
      <point x="1211" y="738"/>
      <point x="1227" y="789"/>
      <point x="1227" y="823" type="curve" smooth="yes"/>
      <point x="1227" y="897"/>
      <point x="1149" y="941"/>
      <point x="1033" y="968" type="curve"/>
      <point x="945" y="892" type="line"/>
      <point x="1058" y="713" type="line"/>
      <point x="1062" y="792" type="line"/>
      <point x="981" y="706"/>
      <point x="865" y="665"/>
      <point x="731" y="685" type="curve"/>
      <point x="788" y="547" type="line"/>
    </contour>
    <contour>
      <point x="1485" y="1129" type="line"/>
      <point x="1485" y="1262" type="line"/>
      <point x="-15" y="1262" type="line"/>
      <point x="-15" y="1129" type="line"/>
    </contour>
    <contour>
      <point x="746" y="1168" type="move" name="top"/>
    </contour>
    <contour>
      <point x="746" y="28" type="move" name="bottom"/>
    </contour>
    <contour>
      <point x="749" y="1168" type="move" name="topcandra"/>
    </contour>
  </outline>
</glyph>
<glyph name="nga-deva" format="1">
  <advance width="1133"/>
  <unicode hex="0919"/>
  <outline>
    <contour>
      <point x="869" y="1262" type="line"/>
      <point x="869" y="1129" type="line"/>
      <point x="1148" y="1129" type="line"/>
      <point x="1148" y="1262" type="line"/>
    </contour>
    <contour>
      <point x="916" y="748"/>
      <point x="887" y="720"/>
      <point x="887" y="655" type="curve" smooth="yes"/>
      <point x="887" y="590"/>
      <point x="916" y="563"/>
      <point x="982" y="563" type="curve" smooth="yes"/>
      <point x="1047" y="563"/>
      <point x="1076" y="590"/>
      <point x="1076" y="655" type="curve" smooth="yes"/>
      <point x="1076" y="720"/>
      <point x="1047" y="748"/>
      <point x="982" y="748" type="curve" smooth="yes"/>
    </contour>
    <component base="dda-deva"/>
    <contour>
      <point x="738" y="1167" type="move" name="top"/>
    </contour>
    <contour>
      <point x="538" y="-70" type="move" name="bottom"/>
    </contour>
    <contour>
      <point x="547" y="1168" type="move" name="topcandra"/>
    </contour>
  </outline>
</glyph>
<glyph name="nna-deva" format="1">
  <advance width="1518"/>
  <unicode hex="0923"/>
  <outline>
    <contour>
      <point x="704" y="1174" type="line"/>
      <point x="704" y="691" type="line" smooth="yes"/>
      <point x="704" y="543"/>
      <point x="651" y="457"/>
      <point x="490" y="457" type="curve" smooth="yes"/>
      <point x="339" y="457"/>
      <point x="287" y="538"/>
      <point x="287" y="690" type="curve" smooth="yes"/>
      <point x="287" y="1174" type="line"/>
      <point x="131" y="1174" type="line"/>
      <point x="131" y="701" type="line" smooth="yes"/>
      <point x="131" y="452"/>
      <point x="252" y="317"/>
      <point x="492" y="317" type="curve" smooth="yes"/>
      <point x="733" y="317"/>
      <point x="860" y="452"/>
      <point x="860" y="698" type="curve" smooth="yes"/>
      <point x="860" y="1174" type="line"/>
    </contour>
    <contour>
      <point x="1161" y="1203" type="line"/>
      <point x="1161" y="1" type="line"/>
      <point x="1317" y="1" type="line"/>
      <point x="1317" y="1203" type="line"/>
    </contour>
    <contour>
      <point x="-15" y="1262" type="line"/>
      <point x="-15" y="1129" type="line"/>
      <point x="1533" y="1129" type="line"/>
      <point x="1533" y="1262" type="line"/>
    </contour>
    <contour>
      <point x="271" y="58" type="move" name="nukta"/>
    </contour>
    <contour>
      <point x="1240" y="1168" type="move" name="top"/>
    </contour>
    <contour>
      <point x="767" y="1168" type="move" name="topcandra"/>
    </contour>
    <contour>
      <point x="1241" y="28" type="move" name="bottom"/>
    </contour>
  </outline>
</glyph>
<glyph name="tha-deva" format="1">
  <advance width="1227"/>
  <unicode hex="0925"/>
  <outline>
    <contour>
      <point x="159" y="1281"/>
      <point x="76" y="1182"/>
      <point x="79" y="1073" type="curve" smooth="yes"/>
      <point x="81" y="995"/>
      <point x="130" y="922"/>
      <point x="225" y="870" type="curve"/>
      <point x="288" y="943" type="line"/>
      <point x="237" y="986"/>
      <point x="215" y="1017"/>
      <point x="215" y="1059" type="curve" smooth="yes"/>
      <point x="215" y="1112"/>
      <point x="252" y="1153"/>
      <point x="331" y="1153" type="curve" smooth="yes"/>
      <point x="412" y="1153"/>
      <point x="466" y="1098"/>
      <point x="466" y="1006" type="curve" smooth="yes"/>
      <point x="466" y="840"/>
      <point x="286" y="743"/>
      <point x="110" y="682" type="curve"/>
      <point x="168" y="382"/>
      <point x="355" y="255"/>
      <point x="558" y="255" type="curve" smooth="yes"/>
      <point x="687" y="255"/>
      <point x="819" y="302"/>
      <point x="903" y="415" type="curve"/>
      <point x="888" y="584" type="line"/>
      <point x="796" y="444"/>
      <point x="673" y="397"/>
      <point x="563" y="397" type="curve" smooth="yes"/>
      <point x="420" y="397"/>
      <point x="302" y="475"/>
      <point x="259" y="647" type="curve"/>
      <point x="242" y="591" type="line"/>
      <point x="400" y="643"/>
      <point x="618" y="771"/>
      <point x="618" y="994" type="curve" smooth="yes"/>
      <point x="618" y="1126"/>
      <point x="532" y="1281"/>
      <point x="329" y="1281" type="curve" smooth="yes"/>
    </contour>
    <contour>
      <point x="870" y="1182" type="line"/>
      <point x="870" y="0" type="line"/>
      <point x="1026" y="0" type="line"/>
      <point x="1026" y="1182" type="line"/>
    </contour>
    <contour>
      <point x="736" y="1262" type="line"/>
      <point x="736" y="1129" type="line"/>
      <point x="1242" y="1129" type="line"/>
      <point x="1242" y="1262" type="line"/>
    </contour>
    <contour>
      <point x="202" y="111" type="move" name="nukta"/>
    </contour>
    <contour>
      <point x="949" y="1168" type="move" name="top"/>
    </contour>
    <contour>
      <point x="669" y="1168" type="move" name="topcandra"/>
    </contour>
    <contour>
      <point x="949" y="28" type="move" name="bottom"/>
    </contour>
  </outline>
</glyph>
<glyph name="da-deva" format="1">
  <advance width="1028"/>
  <unicode hex="0926"/>
  <outline>
    <contour>
      <point x="642" y="1163" type="line"/>
      <point x="642" y="856" type="line"/>
      <point x="730" y="880" type="line"/>
      <point x="662" y="897"/>
      <point x="601" y="904"/>
      <point x="549" y="904" type="curve" smooth="yes"/>
      <point x="206" y="904"/>
      <point x="79" y="748"/>
      <point x="79" y="505" type="curve" smooth="yes"/>
      <point x="79" y="256"/>
      <point x="234" y="81"/>
      <point x="538" y="81" type="curve" smooth="yes"/>
      <point x="655" y="81"/>
      <point x="757" y="106"/>
      <point x="836" y="159" type="curve" smooth="yes"/>
      <point x="899" y="201"/>
      <point x="932" y="268"/>
      <point x="932" y="324" type="curve" smooth="yes"/>
      <point x="932" y="411"/>
      <point x="857" y="477"/>
      <point x="749" y="508" type="curve"/>
      <point x="654" y="435" type="line"/>
      <point x="751" y="236" type="line"/>
      <point x="792" y="297" type="line"/>
      <point x="696" y="236"/>
      <point x="627" y="216"/>
      <point x="532" y="216" type="curve" smooth="yes"/>
      <point x="354" y="216"/>
      <point x="242" y="286"/>
      <point x="242" y="489" type="curve" smooth="yes"/>
      <point x="242" y="697"/>
      <point x="348" y="764"/>
      <point x="575" y="764" type="curve" smooth="yes"/>
      <point x="679" y="764"/>
      <point x="759" y="759"/>
      <point x="799" y="756" type="curve"/>
      <point x="799" y="1163" type="line"/>
    </contour>
    <contour>
      <point x="760" y="214" type="line"/>
      <point x="936" y="-130" type="line"/>
      <point x="1060" y="-55" type="line"/>
      <point x="854" y="256" type="line"/>
    </contour>
    <contour>
      <point x="-15" y="1262" type="line"/>
      <point x="-15" y="1129" type="line"/>
      <point x="1043" y="1129" type="line"/>
      <point x="1043" y="1262" type="line"/>
    </contour>
    <contour>
      <point x="60" y="58" type="move" name="nukta"/>
    </contour>
    <contour>
      <point x="721" y="1168" type="move" name="top"/>
    </contour>
    <contour>
      <point x="521" y="1168" type="move" name="topcandra"/>
    </contour>
    <contour>
      <point x="615" y="39" type="move" name="bottom"/>
    </contour>
  </outline>
</glyph>
<glyph name="la-deva" format="1">
  <advance width="1408"/>
  <unicode hex="0932"/>
  <outline>
    <contour>
      <point x="183" y="927"/>
      <point x="72" y="811"/>
      <point x="72" y="604" type="curve" smooth="yes"/>
      <point x="72" y="346"/>
      <point x="235" y="106"/>
      <point x="347" y="-25" type="curve"/>
      <point x="461" y="69" type="line"/>
      <point x="333" y="228"/>
      <point x="227" y="404"/>
      <point x="227" y="580" type="curve" smooth="yes"/>
      <point x="227" y="730"/>
      <point x="307" y="780"/>
      <point x="402" y="780" type="curve" smooth="yes"/>
      <point x="517" y="780"/>
      <point x="589" y="698"/>
      <point x="653" y="575" type="curve"/>
      <point x="685" y="682" type="line"/>
      <point x="611" y="858"/>
      <point x="509" y="927"/>
      <point x="369" y="927" type="curve" smooth="yes"/>
    </contour>
    <contour>
      <point x="709" y="921"/>
      <point x="572" y="787"/>
      <point x="572" y="574" type="curve" smooth="yes"/>
      <point x="572" y="539"/>
      <point x="576" y="501"/>
      <point x="587" y="465" type="curve"/>
      <point x="727" y="482" type="line"/>
      <point x="723" y="508"/>
      <point x="721" y="532"/>
      <point x="721" y="557" type="curve" smooth="yes"/>
      <point x="721" y="694"/>
      <point x="791" y="778"/>
      <point x="904" y="778" type="curve" smooth="yes"/>
      <point x="996" y="778"/>
      <point x="1054" y="732"/>
      <point x="1085" y="660" type="curve"/>
      <point x="1101" y="760" type="line"/>
      <point x="1071" y="867"/>
      <point x="973" y="921"/>
      <point x="877" y="921" type="curve" smooth="yes"/>
    </contour>
    <contour>
      <point x="1052" y="1193" type="line"/>
      <point x="1052" y="1" type="line"/>
      <point x="1208" y="1" type="line"/>
      <point x="1208" y="1193" type="line"/>
    </contour>
    <contour>
      <point x="-15" y="1262" type="line"/>
      <point x="-15" y="1129" type="line"/>
      <point x="1423" y="1129" type="line"/>
      <point x="1423" y="1262" type="line"/>
    </contour>
    <contour>
      <point x="53" y="58" type="move" name="nukta"/>
    </contour>
    <contour>
      <point x="1130" y="1168" type="move" name="top"/>
    </contour>
    <contour>
      <point x="696" y="1168" type="move" name="topcandra"/>
    </contour>
    <contour>
      <point x="1130" y="28" type="move" name="bottom"/>
    </contour>
  </outline>
</glyph>
<glyph name="aaMatra-deva" format="1">
  <advance width="557"/>
  <unicode hex="093E"/>
  <outline>
    <contour>
      <point x="200" y="1199" type="line"/>
      <point x="200" y="0" type="line"/>
      <point x="357" y="0" type="line"/>
      <point x="357" y="1199" type="line"/>
    </contour>
    <contour>
      <point x="-15" y="1262" type="line"/>
      <point x="-15" y="1129" type="line"/>
      <point x="572" y="1129" type="line"/>
      <point x="572" y="1262" type="line"/>
    </contour>
    <contour>
      <point x="279" y="1168" type="move" name="top"/>
    </contour>
    <contour>
      <point x="279" y="28" type="move" name="bottom"/>
    </contour>
    <contour>
      <point x="283" y="1168" type="move" name="topcandra"/>
    </contour>
  </outline>
</glyph>
<glyph name="uMatra-deva" format="1">
  <advance width="540"/>
  <unicode hex="0941"/>
  <outline>
    <contour>
      <point x="44" y="-129" type="line"/>
      <point x="108" y="-103"/>
      <point x="161" y="-92"/>
      <point x="210" y="-92" type="curve" smooth="yes"/>
      <point x="294" y="-92"/>
      <point x="349" y="-123"/>
      <point x="349" y="-223" type="curve" smooth="yes"/>
      <point x="349" y="-307"/>
      <point x="293" y="-362"/>
      <point x="179" y="-362" type="curve" smooth="yes"/>
      <point x="60" y="-362"/>
      <point x="-55" y="-321"/>
      <point x="-227" y="-126" type="curve"/>
      <point x="-304" y="-201" type="line"/>
      <point x="-114" y="-441"/>
      <point x="38" y="-498"/>
      <point x="180" y="-498" type="curve" smooth="yes"/>
      <point x="381" y="-498"/>
      <point x="495" y="-380"/>
      <point x="495" y="-223" type="curve" smooth="yes"/>
      <point x="495" y="-80"/>
      <point x="396" y="40"/>
      <point x="210" y="40" type="curve" smooth="yes"/>
      <point x="154" y="40"/>
      <point x="77" y="29"/>
      <point x="3" y="-8" type="curve"/>
    </contour>
    <contour>
      <point x="238" y="28" type="move" name="_bottom"/>
    </contour>
  </outline>
</glyph>
<glyph name="rrVocalicMatra-deva" format="1">
  <advance width="560"/>
  <unicode hex="0944"/>
  <outline>
    <contour>
      <point x="342" y="125"/>
      <point x="320" y="126"/>
      <point x="307" y="126" type="curve" smooth="yes"/>
      <point x="158" y="126"/>
      <point x="-18" y="54"/>
      <point x="-18" y="-96" type="curve" smooth="yes"/>
      <point x="-18" y="-167"/>
      <point x="0" y="-289"/>
      <point x="256" y="-322" type="curve"/>
      <point x="324" y="-261" type="line"/>
      <point x="175" y="-238"/>
      <point x="131" y="-180"/>
      <point x="131" y="-116" type="curve" smooth="yes"/>
      <point x="131" y="-36"/>
      <point x="216" y="0"/>
      <point x="354" y="2" type="curve"/>
      <point x="354" y="124" type="line"/>
    </contour>
    <contour>
      <point x="129" y="-243"/>
      <point x="55" y="-363"/>
      <point x="55" y="-468" type="curve" smooth="yes"/>
      <point x="55" y="-597"/>
      <point x="152" y="-694"/>
      <point x="310" y="-694" type="curve" smooth="yes"/>
      <point x="417" y="-694"/>
      <point x="521" y="-658"/>
      <point x="596" y="-602" type="curve"/>
      <point x="541" y="-495" type="line"/>
      <point x="477" y="-542"/>
      <point x="391" y="-572"/>
      <point x="318" y="-572" type="curve" smooth="yes"/>
      <point x="235" y="-572"/>
      <point x="198" y="-536"/>
      <point x="198" y="-470" type="curve" smooth="yes"/>
      <point x="198" y="-398"/>
      <point x="256" y="-356"/>
      <point x="408" y="-340" type="curve"/>
      <point x="393" y="-227" type="line"/>
    </contour>
    <contour>
      <point x="279" y="28" type="move" name="_bottom"/>
    </contour>
  </outline>
</glyph>
<glyph name="eShortMatra-deva" format="1">
  <advance width="540"/>
  <unicode hex="0946"/>
  <outline>
    <contour>
      <point x="290" y="1153" type="line"/>
      <point x="327" y="1219"/>
      <point x="336" y="1268"/>
      <point x="336" y="1315" type="curve" smooth="yes"/>
      <point x="336" y="1462"/>
      <point x="249" y="1543"/>
      <point x="67" y="1568" type="curve" smooth="yes"/>
      <point x="-109" y="1594" type="line" smooth="yes"/>
      <point x="-237" y="1613"/>
      <point x="-274" y="1664"/>
      <point x="-274" y="1727" type="curve" smooth="yes"/>
      <point x="-274" y="1740"/>
      <point x="-272" y="1758"/>
      <point x="-271" y="1776" type="curve"/>
      <point x="-370" y="1789" type="line"/>
      <point x="-387" y="1749"/>
      <point x="-392" y="1714"/>
      <point x="-392" y="1684" type="curve" smooth="yes"/>
      <point x="-392" y="1584"/>
      <point x="-327" y="1490"/>
      <point x="-161" y="1464" type="curve" smooth="yes"/>
      <point x="30" y="1434" type="line" smooth="yes"/>
      <point x="172" y="1412"/>
      <point x="210" y="1371"/>
      <point x="210" y="1283" type="curve" smooth="yes"/>
      <point x="210" y="1250"/>
      <point x="205" y="1214"/>
      <point x="199" y="1179" type="curve"/>
    </contour>
    <contour>
      <point x="313" y="1301" type="move" name="top"/>
    </contour>
    <contour>
      <point x="533" y="1210" type="move" name="topcandra"/>
    </contour>
    <contour>
      <point x="258" y="1140" type="move" name="_top"/>
    </contour>
  </outline>
</glyph>
<glyph name="prishthaMatraE-deva" format="1">
  <advance width="567"/>
  <unicode hex="094E"/>
  <outline>
    <contour>
      <point x="205" y="1199" type="line"/>
      <point x="205" y="0" type="line"/>
      <point x="362" y="0" type="line"/>
      <point x="362" y="1199" type="line"/>
    </contour>
    <contour>
      <point x="205" y="1262" type="line"/>
      <point x="205" y="1129" type="line"/>
      <point x="582" y="1129" type="line"/>
      <point x="582" y="1262" type="line"/>
    </contour>
    <contour>
      <point x="284" y="1168" type="move" name="top"/>
    </contour>
    <contour>
      <point x="284" y="28" type="move" name="bottom"/>
    </contour>
  </outline>
</glyph>
<glyph name="grave-deva" format="1">
  <advance width="600"/>
  <unicode hex="0953"/>
  <outline>
    <contour>
      <point x="-333" y="1320" type="line"/>
      <point x="-257" y="1401" type="line"/>
      <point x="-644" y="1785" type="line"/>
      <point x="-742" y="1700" type="line"/>
    </contour>
  </outline>
</glyph>
<glyph name="m.sups" format="1">
  <advance width="1144"/>
  <unicode hex="1D50"/>
  <outline>
    <contour>
      <point x="106" y="532" type="line" name="hr01"/>
      <point x="232" y="532" type="line"/>
      <point x="232" y="1004" type="line" name="hr02"/>
      <point x="296" y="1070"/>
      <point x="344" y="1101"/>
      <point x="391" y="1101" type="curve" smooth="yes"/>
      <point x="485" y="1101"/>
      <point x="512" y="1035"/>
      <point x="512" y="930" type="curve" smooth="yes"/>
      <point x="512" y="532" type="line"/>
      <point x="638" y="532" type="line"/>
      <point x="638" y="1004" type="line"/>
      <point x="701" y="1070"/>
      <point x="750" y="1101"/>
      <point x="799" y="1101" type="curve" smooth="yes"/>
      <point x="893" y="1101"/>
      <point x="920" y="1035"/>
      <point x="920" y="930" type="curve" smooth="yes"/>
      <point x="920" y="532" type="line"/>
      <point x="1046" y="532" type="line"/>
      <point x="1046" y="948" type="line"/>
      <point x="1046" y="1102"/>
      <point x="986" y="1208"/>
      <point x="839" y="1208" type="curve" smooth="yes"/>
      <point x="751" y="1208"/>
      <point x="679" y="1149"/>
      <point x="617" y="1085" type="curve"/>
      <point x="587" y="1167"/>
      <point x="523" y="1208"/>
      <point x="433" y="1208" type="curve" smooth="yes"/>
      <point x="343" y="1208"/>
      <point x="282" y="1159"/>
      <point x="226" y="1098" type="curve"/>
      <point x="218" y="1098" type="line"/>
      <point x="208" y="1192" type="line" name="hr03"/>
      <point x="106" y="1192" type="line"/>
    </contour>
  </outline>
</glyph>
<glyph name="v.sups" format="1">
  <advance width="655"/>
  <unicode hex="1D5B"/>
  <outline>
    <contour>
      <point x="254" y="532" type="line" name="hr00"/>
      <point x="402" y="532" type="line"/>
      <point x="640" y="1192" type="line"/>
      <point x="516" y="1192" type="line"/>
      <point x="397" y="830" type="line"/>
      <point x="333" y="632" type="line"/>
      <point x="325" y="632" type="line"/>
      <point x="261" y="830" type="line"/>
      <point x="142" y="1192" type="line"/>
      <point x="16" y="1192" type="line"/>
    </contour>
  </outline>
</glyph>
<glyph name="uni1ED8" format="1">
  <advance width="1349"/>
  <unicode hex="1ED8"/>
  <outline>
    <contour>
      <point x="534" y="1446" type="line" name="hr00"/>
      <point x="672" y="1585" type="line"/>
      <point x="680" y="1585" type="line"/>
      <point x="817" y="1446" type="line"/>
      <point x="951" y="1446" type="line"/>
      <point x="755" y="1675" type="line"/>
      <point x="595" y="1675" type="line"/>
      <point x="398" y="1446" type="line"/>
    </contour>
    <component base="O"/>
    <component base="dotaccent.cap" xOffset="676" yOffset="-1884"/>
  </outline>
</glyph>
<glyph name="i.sups" format="1">
  <advance width="339"/>
  <unicode hex="2071"/>
  <outline>
    <contour>
      <point x="172" y="1319" type="curve" name="hr01" smooth="yes"/>
      <point x="220" y="1319"/>
      <point x="257" y="1352"/>
      <point x="257" y="1399" type="curve" smooth="yes"/>
      <point x="257" y="1446"/>
      <point x="220" y="1478"/>
      <point x="172" y="1478" type="curve" smooth="yes"/>
      <point x="123" y="1478"/>
      <point x="86" y="1446"/>
      <point x="86" y="1399" type="curve" smooth="yes"/>
      <point x="86" y="1352"/>
      <point x="123" y="1319"/>
    </contour>
    <contour>
      <point x="106" y="532" type="line" name="hr02"/>
      <point x="232" y="532" type="line"/>
      <point x="232" y="1192" type="line"/>
      <point x="106" y="1192" type="line"/>
    </contour>
  </outline>
</glyph>
<glyph name="parenright.sups" format="1">
  <advance width="484"/>
  <unicode hex="207E"/>
  <outline>
    <contour>
      <point x="80" y="784" type="curve" name="hr00"/>
      <point x="175" y="739" type="line"/>
      <point x="288" y="905"/>
      <point x="351" y="1069"/>
      <point x="351" y="1300" type="curve" smooth="yes"/>
      <point x="351" y="1530"/>
      <point x="288" y="1692"/>
      <point x="175" y="1858" type="curve"/>
      <point x="80" y="1812" type="line"/>
      <point x="184" y="1653"/>
      <point x="225" y="1481"/>
      <point x="225" y="1300" type="curve" smooth="yes"/>
      <point x="225" y="1118"/>
      <point x="184" y="948"/>
    </contour>
  </outline>
</glyph>
<glyph name="eight.subs" format="1">
  <advance width="751"/>
  <unicode hex="2088"/>
  <outline>
    <contour>
      <point x="214" y="-212" type="curve" name="hr01" smooth="yes"/>
      <point x="214" y="-145"/>
      <point x="253" y="-88"/>
      <point x="326" y="-47" type="curve"/>
      <point x="434" y="-90"/>
      <point x="533" y="-115"/>
      <point x="533" y="-214" type="curve" smooth="yes"/>
      <point x="533" y="-290"/>
      <point x="461" y="-353"/>
      <point x="373" y="-353" type="curve" smooth="yes"/>
      <point x="278" y="-353"/>
      <point x="214" y="-286"/>
    </contour>
    <contour>
      <point x="420" y="32" type="curve" name="hr02"/>
      <point x="324" y="64"/>
      <point x="245" y="105"/>
      <point x="245" y="186" type="curve" smooth="yes"/>
      <point x="245" y="252"/>
      <point x="302" y="301"/>
      <point x="373" y="301" type="curve" smooth="yes"/>
      <point x="446" y="301"/>
      <point x="507" y="256"/>
      <point x="507" y="184" type="curve" smooth="yes"/>
      <point x="507" y="130"/>
      <point x="479" y="79"/>
    </contour>
    <contour>
      <point x="92" y="-224" type="curve" name="hr03" smooth="yes"/>
      <point x="92" y="-347"/>
      <point x="205" y="-450"/>
      <point x="373" y="-450" type="curve" smooth="yes"/>
      <point x="535" y="-450"/>
      <point x="654" y="-349"/>
      <point x="654" y="-220" type="curve" smooth="yes"/>
      <point x="654" y="-122"/>
      <point x="598" y="-58"/>
      <point x="505" y="-13" type="curve"/>
      <point x="505" y="-5" type="line"/>
      <point x="560" y="32"/>
      <point x="628" y="95"/>
      <point x="628" y="190" type="curve" name="hr04" smooth="yes"/>
      <point x="628" y="316"/>
      <point x="516" y="398"/>
      <point x="373" y="398" type="curve" smooth="yes"/>
      <point x="236" y="398"/>
      <point x="125" y="314"/>
      <point x="125" y="190" type="curve" smooth="yes"/>
      <point x="125" y="104"/>
      <point x="174" y="53"/>
      <point x="244" y="6" type="curve"/>
      <point x="244" y="-2" type="line"/>
      <point x="166" y="-45"/>
      <point x="92" y="-124"/>
    </contour>
  </outline>
</glyph>
<glyph name="colonmonetary" format="1">
  <advance width="1017"/>
  <unicode hex="20A1"/>
  <outline>
    <contour>
      <point x="593" y="1193" type="line" name="hr01"/>
      <point x="611" y="1196"/>
      <point x="630" y="1198"/>
      <point x="650" y="1198" type="curve" smooth="yes"/>
      <point x="673" y="1198"/>
      <point x="692" y="1194"/>
      <point x="713" y="1189" type="curve"/>
      <point x="585" y="113" type="line"/>
      <point x="542" y="119"/>
      <point x="505" y="134"/>
      <point x="470" y="159" type="curve"/>
    </contour>
    <contour>
      <point x="402" y="229" type="line"/>
      <point x="335" y="326"/>
      <point x="297" y="472"/>
      <point x="297" y="657" type="curve" smooth="yes"/>
      <point x="297" y="914"/>
      <point x="374" y="1098"/>
      <point x="513" y="1167" type="curve"/>
    </contour>
    <contour>
      <point x="881" y="255" type="line"/>
      <point x="817" y="171"/>
      <point x="749" y="121"/>
      <point x="663" y="111" type="curve"/>
      <point x="785" y="1151" type="line"/>
      <point x="814" y="1130"/>
      <point x="844" y="1101"/>
      <point x="868" y="1070" type="curve"/>
      <point x="968" y="1163" type="line"/>
      <point x="925" y="1219"/>
      <point x="867" y="1268"/>
      <point x="802" y="1298" type="curve"/>
      <point x="830" y="1532" type="line"/>
      <point x="753" y="1532" type="line"/>
      <point x="728" y="1323" type="line" name="hr02"/>
      <point x="704" y="1329"/>
      <point x="679" y="1331"/>
      <point x="654" y="1331" type="curve" name="hr03" smooth="yes"/>
      <point x="640" y="1331"/>
      <point x="624" y="1331"/>
      <point x="609" y="1329" type="curve"/>
      <point x="634" y="1532" type="line"/>
      <point x="556" y="1532" type="line"/>
      <point x="531" y="1317" type="line"/>
      <point x="283" y="1257"/>
      <point x="125" y="1016"/>
      <point x="125" y="651" type="curve" smooth="yes"/>
      <point x="125" y="358"/>
      <point x="223" y="145"/>
      <point x="380" y="43" type="curve"/>
      <point x="347" y="-225" type="line"/>
      <point x="425" y="-225" type="line"/>
      <point x="452" y="6" type="line"/>
      <point x="488" y="-8"/>
      <point x="527" y="-18"/>
      <point x="568" y="-23" type="curve"/>
      <point x="544" y="-225" type="line"/>
      <point x="622" y="-225" type="line"/>
      <point x="646" y="-25" type="line" name="hr04"/>
      <point x="785" y="-16"/>
      <point x="892" y="55"/>
      <point x="978" y="166" type="curve"/>
    </contour>
  </outline>
</glyph>
<glyph name="rupee" format="1">
  <advance width="1019"/>
  <unicode hex="20A8"/>
  <outline>
    <contour>
      <point x="462" y="1186" type="line"/>
      <point x="462" y="778" type="line" smooth="yes"/>
      <point x="462" y="693"/>
      <point x="437" y="652"/>
      <point x="363" y="652" type="curve" smooth="yes"/>
      <point x="329" y="652"/>
      <point x="288" y="663"/>
      <point x="250" y="694" type="curve"/>
      <point x="146" y="613" type="line"/>
      <point x="574" y="-33" type="line"/>
      <point x="699" y="59" type="line"/>
      <point x="326" y="575" type="line"/>
      <point x="299" y="567" type="line"/>
      <point x="319" y="546"/>
      <point x="367" y="531"/>
      <point x="410" y="531" type="curve" smooth="yes"/>
      <point x="530" y="531"/>
      <point x="613" y="611"/>
      <point x="613" y="790" type="curve" smooth="yes"/>
      <point x="613" y="1187" type="line"/>
    </contour>
    <contour>
      <point x="85" y="1262" type="line"/>
      <point x="85" y="1129" type="line"/>
      <point x="808" y="1129" type="line"/>
      <point x="808" y="1262" type="line"/>
    </contour>
    <contour>
      <point x="85" y="971" type="line"/>
      <point x="85" y="839" type="line"/>
      <point x="808" y="839" type="line"/>
      <point x="808" y="971" type="line"/>
    </contour>
    <contour>
      <point x="427" y="1168" type="move" name="top"/>
    </contour>
    <contour>
      <point x="343" y="28" type="move" name="bottom"/>
    </contour>
  </outline>
</glyph>
<glyph name="dong" format="1">
  <advance width="1017"/>
  <unicode hex="20AB"/>
  <outline>
    <contour>
      <point x="162" y="0" type="line" name="hr00"/>
      <point x="896" y="0" type="line"/>
      <point x="896" y="99" type="line"/>
      <point x="162" y="99" type="line"/>
    </contour>
    <contour>
      <point x="688" y="454" type="line"/>
      <point x="623" y="378"/>
      <point x="559" y="345"/>
      <point x="489" y="345" type="curve" smooth="yes"/>
      <point x="361" y="345"/>
      <point x="288" y="445"/>
      <point x="288" y="614" type="curve" smooth="yes"/>
      <point x="288" y="752"/>
      <point x="382" y="857"/>
      <point x="498" y="857" type="curve" smooth="yes"/>
      <point x="573" y="857"/>
      <point x="621" y="832"/>
      <point x="688" y="772" type="curve"/>
    </contour>
    <contour>
      <point x="830" y="1225" type="line"/>
      <point x="830" y="1362" type="line"/>
      <point x="688" y="1362" type="line"/>
      <point x="688" y="1225" type="line"/>
      <point x="389" y="1225" type="line"/>
      <point x="389" y="1125" type="line"/>
      <point x="688" y="1125" type="line"/>
      <point x="688" y="1055" type="line"/>
      <point x="696" y="885" type="line"/>
      <point x="629" y="944"/>
      <point x="573" y="979"/>
      <point x="473" y="979" type="curve" smooth="yes"/>
      <point x="301" y="979"/>
      <point x="139" y="838"/>
      <point x="139" y="612" type="curve" smooth="yes"/>
      <point x="139" y="362"/>
      <point x="264" y="225"/>
      <point x="461" y="225" type="curve" smooth="yes"/>
      <point x="557" y="225"/>
      <point x="635" y="272"/>
      <point x="694" y="334" type="curve"/>
      <point x="700" y="334" type="line"/>
      <point x="713" y="246" type="line"/>
      <point x="830" y="246" type="line"/>
      <point x="830" y="1125" type="line"/>
      <point x="990" y="1136" type="line"/>
      <point x="990" y="1225" type="line"/>
    </contour>
  </outline>
</glyph>
<glyph name="uni2206" format="1">
  <advance width="1210"/>
  <unicode hex="2206"/>
  <outline>
    <contour>
      <point x="61" y="0" type="line" name="hr00"/>
      <point x="1151" y="0" type="line"/>
      <point x="1151" y="101" type="line"/>
      <point x="703" y="1352" type="line"/>
      <point x="508" y="1352" type="line"/>
      <point x="61" y="101" type="line"/>
    </contour>
    <contour>
      <point x="252" y="143" type="line"/>
      <point x="470" y="767" type="line"/>
      <point x="603" y="1178" type="line"/>
      <point x="611" y="1178" type="line"/>
      <point x="743" y="767" type="line"/>
      <point x="962" y="143" type="line"/>
    </contour>
  </outline>
</glyph>
<glyph name="lessequal" format="1">
  <advance width="1017"/>
  <unicode hex="2264"/>
  <outline>
    <contour>
      <point x="70" y="0" type="line" name="hr00"/>
      <point x="947" y="0" type="line"/>
      <point x="947" y="126" type="line"/>
      <point x="70" y="126" type="line"/>
    </contour>
    <contour>
      <point x="70" y="627" type="line"/>
      <point x="947" y="313" type="line"/>
      <point x="947" y="457" type="line"/>
      <point x="516" y="607" type="line"/>
      <point x="240" y="698" type="line"/>
      <point x="240" y="707" type="line"/>
      <point x="516" y="797" type="line"/>
      <point x="947" y="947" type="line"/>
      <point x="947" y="1091" type="line"/>
      <point x="70" y="777" type="line"/>
    </contour>
  </outline>
</glyph>
<glyph name="uni25B7" format="1">
  <advance width="1168"/>
  <unicode hex="25B7"/>
  <outline>
    <contour>
      <point x="237" y="249" type="line"/>
      <point x="237" y="904" type="line"/>
      <point x="874" y="578" type="line"/>
    </contour>
    <contour>
      <point x="117" y="39" type="line"/>
      <point x="121" y="39" type="line"/>
      <point x="1132" y="573" type="line"/>
      <point x="1132" y="582" type="line"/>
      <point x="121" y="1114" type="line"/>
      <point x="117" y="1114" type="line"/>
    </contour>
  </outline>
</glyph>
<glyph name="uni25C1" format="1">
  <advance width="1168"/>
  <unicode hex="25C1"/>
  <outline>
    <contour>
      <point x="295" y="578" type="line"/>
      <point x="930" y="904" type="line"/>
      <point x="930" y="249" type="line"/>
    </contour>
    <contour>
      <point x="1052" y="1114" type="line"/>
      <point x="1048" y="1114" type="line"/>
      <point x="37" y="582" type="line"/>
      <point x="37" y="573" type="line"/>
      <point x="1048" y="39" type="line"/>
      <point x="1052" y="39" type="line"/>
    </contour>
  </outline>
</glyph>
<glyph name="uni25C6" format="1">
  <advance width="625"/>
  <unicode hex="25C6"/>
  <outline>
    <contour>
      <point x="312" y="253" type="line"/>
      <point x="599" y="539" type="line"/>
      <point x="312" y="824" type="line"/>
      <point x="25" y="539" type="line"/>
    </contour>
  </outline>
</glyph>
<glyph name="commaaccent" format="1">
  <advance width="400"/>
  <unicode hex="F6C3"/>
  <outline>
    <contour>
      <point x="155" y="-98" type="curve" name="hr00"/>
      <point x="118" y="-176" type="line"/>
      <point x="176" y="-190"/>
      <point x="223" y="-213"/>
      <point x="223" y="-266" type="curve" smooth="yes"/>
      <point x="223" y="-319"/>
      <point x="149" y="-346"/>
      <point x="41" y="-360" type="curve"/>
      <point x="57" y="-442" type="line"/>
      <point x="212" y="-430"/>
      <point x="352" y="-375"/>
      <point x="352" y="-256" type="curve" smooth="yes"/>
      <point x="352" y="-164"/>
      <point x="293" y="-119"/>
    </contour>
    <contour>
      <point x="196" y="1050" type="move" name="_top"/>
    </contour>
  </outline>
</glyph>
<glyph name="fi" format="1">
  <advance width="1136"/>
  <unicode hex="FB01"/>
  <outline>
    <contour>
      <point x="197" y="995" type="line" name="hr01"/>
      <point x="61" y="985" type="line"/>
      <point x="61" y="859" type="line"/>
      <point x="197" y="859" type="line"/>
      <point x="197" y="0" type="line"/>
      <point x="363" y="0" type="line"/>
      <point x="363" y="859" type="line"/>
      <point x="574" y="859" type="line"/>
      <point x="574" y="995" type="line"/>
      <point x="363" y="995" type="line"/>
      <point x="363" y="1154" type="line"/>
      <point x="363" y="1281"/>
      <point x="408" y="1348"/>
      <point x="503" y="1348" type="curve" smooth="yes"/>
      <point x="540" y="1348"/>
      <point x="579" y="1339"/>
      <point x="615" y="1323" type="curve"/>
      <point x="651" y="1450" type="line"/>
      <point x="606" y="1468"/>
      <point x="548" y="1483"/>
      <point x="486" y="1483" type="curve" smooth="yes"/>
      <point x="289" y="1483"/>
      <point x="197" y="1357"/>
      <point x="197" y="1154" type="curve" smooth="yes"/>
    </contour>
    <contour>
      <point x="802" y="0" type="line"/>
      <point x="968" y="0" type="line"/>
      <point x="968" y="995" type="line"/>
      <point x="802" y="995" type="line"/>
    </contour>
    <contour>
      <point x="887" y="1416" type="curve" name="hr02" smooth="yes"/>
      <point x="822" y="1416"/>
      <point x="771" y="1373"/>
      <point x="771" y="1309" type="curve" smooth="yes"/>
      <point x="771" y="1245"/>
      <point x="822" y="1201"/>
      <point x="887" y="1201" type="curve" smooth="yes"/>
      <point x="951" y="1201"/>
      <point x="1001" y="1245"/>
      <point x="1001" y="1309" type="curve" smooth="yes"/>
      <point x="1001" y="1373"/>
      <point x="951" y="1416"/>
    </contour>
  </outline>
</glyph>
<glyph name="Igrave.a" format="1">
  <advance width="703"/>
  <outline>
    <contour>
      <point x="94" y="0" type="line"/>
      <point x="605" y="0" type="line"/>
      <point x="605" y="143" type="line"/>
      <point x="434" y="143" type="line"/>
      <point x="434" y="1202" type="line"/>
      <point x="605" y="1202" type="line"/>
      <point x="605" y="1343" type="line"/>
      <point x="94" y="1343" type="line"/>
      <point x="94" y="1202" type="line"/>
      <point x="266" y="1202" type="line"/>
      <point x="266" y="143" type="line"/>
      <point x="94" y="143" type="line"/>
    </contour>
    <contour>
      <point x="315" y="1446" type="line"/>
      <point x="455" y="1446" type="line"/>
      <point x="274" y="1675" type="line"/>
      <point x="84" y="1675" type="line"/>
    </contour>
  </outline>
</glyph>
<glyph name="a.a" format="1">
  <advance width="1136"/>
  <outline>
    <contour>
      <point x="268" y="496" type="curve" smooth="yes"/>
      <point x="268" y="728"/>
      <point x="394" y="881"/>
      <point x="564" y="881" type="curve" smooth="yes"/>
      <point x="650" y="881"/>
      <point x="715" y="851"/>
      <point x="800" y="775" type="curve"/>
      <point x="800" y="253" type="line"/>
      <point x="717" y="161"/>
      <point x="648" y="115"/>
      <point x="550" y="115" type="curve" smooth="yes"/>
      <point x="367" y="115"/>
      <point x="268" y="253"/>
    </contour>
    <contour>
      <point x="96" y="494" type="curve" smooth="yes"/>
      <point x="96" y="156"/>
      <point x="249" y="-25"/>
      <point x="512" y="-25" type="curve" smooth="yes"/>
      <point x="636" y="-25"/>
      <point x="732" y="41"/>
      <point x="810" y="117" type="curve"/>
      <point x="816" y="117" type="line"/>
      <point x="829" y="0" type="line"/>
      <point x="968" y="0" type="line"/>
      <point x="968" y="995" type="line"/>
      <point x="831" y="995" type="line"/>
      <point x="818" y="899" type="line"/>
      <point x="814" y="899" type="line"/>
      <point x="724" y="979"/>
      <point x="652" y="1021"/>
      <point x="535" y="1021" type="curve" smooth="yes"/>
      <point x="296" y="1021"/>
      <point x="96" y="824"/>
    </contour>
    <contour>
      <point x="804" y="0" type="move" name="mark0"/>
    </contour>
  </outline>
</glyph>
<glyph name="aogonek.a" format="1">
  <advance width="1136"/>
  <outline>
    <contour>
      <point x="268" y="498" type="curve" smooth="yes"/>
      <point x="268" y="725"/>
      <point x="396" y="880"/>
      <point x="557" y="880" type="curve" smooth="yes"/>
      <point x="639" y="880"/>
      <point x="715" y="851"/>
      <point x="800" y="775" type="curve"/>
      <point x="800" y="253" type="line"/>
      <point x="717" y="161"/>
      <point x="637" y="115"/>
      <point x="545" y="115" type="curve" smooth="yes"/>
      <point x="370" y="115"/>
      <point x="268" y="259"/>
    </contour>
    <contour>
      <point x="96" y="496" type="curve" smooth="yes"/>
      <point x="96" y="164"/>
      <point x="258" y="-25"/>
      <point x="508" y="-25" type="curve" smooth="yes"/>
      <point x="626" y="-25"/>
      <point x="732" y="41"/>
      <point x="810" y="117" type="curve"/>
      <point x="816" y="117" type="line"/>
      <point x="830" y="8" type="line"/>
      <point x="743" y="-55"/>
      <point x="666" y="-137"/>
      <point x="666" y="-248" type="curve" smooth="yes"/>
      <point x="666" y="-362"/>
      <point x="748" y="-422"/>
      <point x="852" y="-422" type="curve" smooth="yes"/>
      <point x="902" y="-422"/>
      <point x="972" y="-397"/>
      <point x="1011" y="-367" type="curve"/>
      <point x="968" y="-284" type="line"/>
      <point x="943" y="-300"/>
      <point x="917" y="-310"/>
      <point x="884" y="-310" type="curve" smooth="yes"/>
      <point x="835" y="-310"/>
      <point x="790" y="-280"/>
      <point x="790" y="-216" type="curve" smooth="yes"/>
      <point x="790" y="-135"/>
      <point x="847" y="-59"/>
      <point x="968" y="0" type="curve"/>
      <point x="968" y="995" type="line"/>
      <point x="831" y="995" type="line"/>
      <point x="818" y="899" type="line"/>
      <point x="814" y="899" type="line"/>
      <point x="724" y="979"/>
      <point x="642" y="1020"/>
      <point x="530" y="1020" type="curve" smooth="yes"/>
      <point x="303" y="1020"/>
      <point x="96" y="819"/>
    </contour>
    <contour>
      <point x="577" y="1040" type="move" name="mark0"/>
    </contour>
  </outline>
</glyph>
<glyph name="bh_la-deva.loclMAR" format="1">
  <advance width="1230"/>
  <outline>
    <contour>
      <point x="163" y="1283"/>
      <point x="115" y="1273"/>
      <point x="73" y="1257" type="curve"/>
      <point x="95" y="1128" type="line"/>
      <point x="124" y="1135"/>
      <point x="161" y="1144"/>
      <point x="199" y="1144" type="curve" smooth="yes"/>
      <point x="262" y="1144"/>
      <point x="294" y="1120"/>
      <point x="294" y="1039" type="curve" smooth="yes"/>
      <point x="294" y="577" type="line"/>
      <point x="450" y="577" type="line"/>
      <point x="450" y="1035" type="line" smooth="yes"/>
      <point x="450" y="1153"/>
      <point x="431" y="1283"/>
      <point x="225" y="1283" type="curve" smooth="yes"/>
    </contour>
    <contour>
      <point x="319" y="654" type="line"/>
      <point x="144" y="634" type="line"/>
      <point x="144" y="524" type="line"/>
      <point x="319" y="329" type="line"/>
      <point x="427" y="331"/>
      <point x="449" y="386"/>
      <point x="449" y="452" type="curve" smooth="yes"/>
      <point x="449" y="654" type="line"/>
    </contour>
    <contour>
      <point x="299" y="648" type="line"/>
      <point x="299" y="509" type="line"/>
      <point x="989" y="509" type="line"/>
      <point x="989" y="648" type="line"/>
    </contour>
    <contour>
      <point x="869" y="1203" type="line"/>
      <point x="869" y="56" type="line"/>
      <point x="1025" y="56" type="line"/>
      <point x="1025" y="1203" type="line"/>
    </contour>
    <contour>
      <point x="682" y="1262" type="line"/>
      <point x="682" y="1129" type="line"/>
      <point x="1245" y="1129" type="line"/>
      <point x="1245" y="1262" type="line"/>
    </contour>
    <contour>
      <point x="701" y="173"/>
      <point x="579" y="43"/>
      <point x="579" y="-156" type="curve" smooth="yes"/>
      <point x="579" y="-191"/>
      <point x="583" y="-226"/>
      <point x="593" y="-260" type="curve"/>
      <point x="727" y="-244" type="line"/>
      <point x="724" y="-220"/>
      <point x="722" y="-196"/>
      <point x="722" y="-173" type="curve" smooth="yes"/>
      <point x="722" y="-46"/>
      <point x="782" y="34"/>
      <point x="894" y="34" type="curve" smooth="yes"/>
      <point x="999" y="34"/>
      <point x="1059" y="-31"/>
      <point x="1059" y="-143" type="curve" smooth="yes"/>
      <point x="1059" y="-239"/>
      <point x="1027" y="-347"/>
      <point x="854" y="-475" type="curve"/>
      <point x="932" y="-580" type="line"/>
      <point x="1147" y="-440"/>
      <point x="1202" y="-273"/>
      <point x="1202" y="-146" type="curve" smooth="yes"/>
      <point x="1202" y="54"/>
      <point x="1084" y="173"/>
      <point x="891" y="173" type="curve" smooth="yes"/>
    </contour>
    <contour>
      <point x="192" y="173"/>
      <point x="79" y="62"/>
      <point x="79" y="-120" type="curve" smooth="yes"/>
      <point x="79" y="-322"/>
      <point x="191" y="-465"/>
      <point x="374" y="-575" type="curve"/>
      <point x="442" y="-471" type="line"/>
      <point x="283" y="-369"/>
      <point x="229" y="-266"/>
      <point x="229" y="-140" type="curve" smooth="yes"/>
      <point x="229" y="-14"/>
      <point x="307" y="33"/>
      <point x="393" y="33" type="curve" smooth="yes"/>
      <point x="503" y="33"/>
      <point x="577" y="-47"/>
      <point x="636" y="-164" type="curve"/>
      <point x="665" y="-59" type="line"/>
      <point x="597" y="106"/>
      <point x="497" y="173"/>
      <point x="364" y="173" type="curve" smooth="yes"/>
    </contour>
    <contour>
      <point x="946" y="1168" type="move" name="top"/>
    </contour>
    <contour>
      <point x="895" y="-486" type="move" name="bottom"/>
    </contour>
    <contour>
      <point x="673" y="1168" type="move" name="topcandra"/>
    </contour>
  </outline>
</glyph>
<glyph name="c-deva" format="1">
  <advance width="743"/>
  <outline>
    <contour>
      <point x="442" y="816" type="line"/>
      <point x="278" y="787"/>
      <point x="186" y="679"/>
      <point x="186" y="521" type="curve"/>
      <point x="186" y="336"/>
      <point x="319" y="214"/>
      <point x="542" y="214" type="curve" smooth="yes"/>
      <point x="727" y="214"/>
      <point x="870" y="304"/>
      <point x="963" y="426" type="curve"/>
      <point x="944" y="599" type="line"/>
      <point x="853" y="450"/>
      <point x="714" y="349"/>
      <point x="551" y="349" type="curve" smooth="yes"/>
      <point x="416" y="349"/>
      <point x="347" y="414"/>
      <point x="347" y="537" type="curve"/>
      <point x="347" y="682"/>
      <point x="448" y="765"/>
      <point x="632" y="770" type="curve"/>
      <point x="603" y="835" type="line"/>
    </contour>
    <contour>
      <point x="33" y="901" type="line"/>
      <point x="33" y="769" type="line"/>
      <point x="690" y="770" type="line"/>
      <point x="690" y="902" type="line"/>
    </contour>
    <contour>
      <point x="-15" y="1262" type="line"/>
      <point x="-15" y="1129" type="line"/>
      <point x="763" y="1129" type="line"/>
      <point x="763" y="1262" type="line"/>
    </contour>
  </outline>
</glyph>
<glyph name="ch_la-deva.loclMAR" format="1">
  <advance width="1309"/>
  <outline>
    <contour>
      <point x="778" y="1035"/>
      <point x="697" y="938"/>
      <point x="697" y="807" type="curve" smooth="yes"/>
      <point x="698" y="722"/>
      <point x="734" y="643"/>
      <point x="803" y="587" type="curve"/>
      <point x="890" y="657" type="line"/>
      <point x="854" y="703"/>
      <point x="839" y="746"/>
      <point x="839" y="794" type="curve" smooth="yes"/>
      <point x="839" y="866"/>
      <point x="883" y="914"/>
      <point x="958" y="914" type="curve" smooth="yes"/>
      <point x="1039" y="914"/>
      <point x="1094" y="861"/>
      <point x="1095" y="743" type="curve" smooth="yes"/>
      <point x="1096" y="552"/>
      <point x="853" y="379"/>
      <point x="547" y="379" type="curve" smooth="yes"/>
      <point x="334" y="379"/>
      <point x="254" y="456"/>
      <point x="254" y="557" type="curve" smooth="yes"/>
      <point x="254" y="698"/>
      <point x="397" y="717"/>
      <point x="552" y="721" type="curve"/>
      <point x="548" y="851" type="line"/>
      <point x="533" y="852"/>
      <point x="518" y="852"/>
      <point x="505" y="852" type="curve" smooth="yes"/>
      <point x="245" y="846"/>
      <point x="92" y="731"/>
      <point x="92" y="555" type="curve" smooth="yes"/>
      <point x="92" y="390"/>
      <point x="228" y="240"/>
      <point x="550" y="240" type="curve" smooth="yes"/>
      <point x="933" y="240"/>
      <point x="1241" y="474"/>
      <point x="1241" y="746" type="curve" smooth="yes"/>
      <point x="1241" y="947"/>
      <point x="1111" y="1038"/>
      <point x="959" y="1037" type="curve" smooth="yes"/>
    </contour>
    <contour>
      <point x="-15" y="1262" type="line"/>
      <point x="-15" y="1129" type="line"/>
      <point x="1324" y="1129" type="line"/>
      <point x="1324" y="1262" type="line"/>
    </contour>
    <contour>
      <point x="883" y="1225" type="line"/>
      <point x="883" y="966" type="line"/>
      <point x="1036" y="966" type="line"/>
      <point x="1036" y="1225" type="line"/>
    </contour>
    <contour>
      <point x="284" y="1228"/>
      <point x="85" y="1167"/>
      <point x="85" y="996" type="curve" smooth="yes"/>
      <point x="85" y="903"/>
      <point x="142" y="791"/>
      <point x="354" y="718" type="curve"/>
      <point x="428" y="783" type="line"/>
      <point x="327" y="812"/>
      <point x="243" y="892"/>
      <point x="243" y="976" type="curve" smooth="yes"/>
      <point x="243" y="1082"/>
      <point x="331" y="1135"/>
      <point x="466" y="1138" type="curve"/>
      <point x="482" y="1230" type="line"/>
    </contour>
    <contour>
      <point x="883" y="413" type="line"/>
      <point x="883" y="84" type="line"/>
      <point x="1036" y="84" type="line"/>
      <point x="1036" y="413" type="line"/>
    </contour>
    <contour>
      <point x="699" y="133"/>
      <point x="577" y="3"/>
      <point x="577" y="-196" type="curve" smooth="yes"/>
      <point x="577" y="-231"/>
      <point x="581" y="-266"/>
      <point x="591" y="-300" type="curve"/>
      <point x="725" y="-284" type="line"/>
      <point x="722" y="-260"/>
      <point x="720" y="-236"/>
      <point x="720" y="-213" type="curve" smooth="yes"/>
      <point x="720" y="-86"/>
      <point x="780" y="-7"/>
      <point x="892" y="-7" type="curve" smooth="yes"/>
      <point x="997" y="-7"/>
      <point x="1057" y="-71"/>
      <point x="1057" y="-183" type="curve" smooth="yes"/>
      <point x="1057" y="-279"/>
      <point x="1025" y="-387"/>
      <point x="852" y="-515" type="curve"/>
      <point x="930" y="-620" type="line"/>
      <point x="1145" y="-480"/>
      <point x="1200" y="-313"/>
      <point x="1200" y="-186" type="curve" smooth="yes"/>
      <point x="1200" y="14"/>
      <point x="1082" y="133"/>
      <point x="889" y="133" type="curve" smooth="yes"/>
    </contour>
    <contour>
      <point x="190" y="133"/>
      <point x="77" y="22"/>
      <point x="77" y="-160" type="curve" smooth="yes"/>
      <point x="77" y="-362"/>
      <point x="189" y="-505"/>
      <point x="372" y="-615" type="curve"/>
      <point x="440" y="-511" type="line"/>
      <point x="281" y="-409"/>
      <point x="227" y="-306"/>
      <point x="227" y="-180" type="curve" smooth="yes"/>
      <point x="227" y="-54"/>
      <point x="305" y="-7"/>
      <point x="391" y="-7" type="curve" smooth="yes"/>
      <point x="501" y="-7"/>
      <point x="575" y="-87"/>
      <point x="634" y="-204" type="curve"/>
      <point x="663" y="-99" type="line"/>
      <point x="595" y="66"/>
      <point x="495" y="133"/>
      <point x="362" y="133" type="curve" smooth="yes"/>
    </contour>
    <contour>
      <point x="960" y="1168" type="move" name="top"/>
    </contour>
    <contour>
      <point x="893" y="-526" type="move" name="bottom"/>
    </contour>
    <contour>
      <point x="674" y="1168" type="move" name="topcandra"/>
    </contour>
  </outline>
</glyph>
<glyph name="comma.subs" format="1">
  <advance width="361"/>
  <outline>
    <contour>
      <point x="100" y="-660" type="line" name="hr01"/>
      <point x="220" y="-616"/>
      <point x="294" y="-516"/>
      <point x="294" y="-394" type="curve" smooth="yes"/>
      <point x="294" y="-298"/>
      <point x="253" y="-246"/>
      <point x="185" y="-246" type="curve" name="hr02" smooth="yes"/>
      <point x="135" y="-246"/>
      <point x="90" y="-282"/>
      <point x="90" y="-339" type="curve" smooth="yes"/>
      <point x="90" y="-396"/>
      <point x="135" y="-425"/>
      <point x="182" y="-425" type="curve" name="hr03" smooth="yes"/>
      <point x="188" y="-425"/>
      <point x="193" y="-425"/>
      <point x="199" y="-423" type="curve"/>
      <point x="197" y="-503"/>
      <point x="147" y="-554"/>
      <point x="68" y="-587" type="curve"/>
    </contour>
  </outline>
</glyph>
<glyph name="d_bha-deva" format="1">
  <advance width="1361"/>
  <outline>
    <contour>
      <point x="-28" y="248"/>
      <point x="-65" y="216"/>
      <point x="-93" y="182" type="curve"/>
      <point x="-15" y="87" type="line"/>
      <point x="7" y="107"/>
      <point x="35" y="133"/>
      <point x="66" y="152" type="curve" smooth="yes"/>
      <point x="125" y="188"/>
      <point x="158" y="181"/>
      <point x="204" y="102" type="curve" smooth="yes"/>
      <point x="388" y="-217" type="line"/>
      <point x="508" y="-146" type="line"/>
      <point x="325" y="169" type="line" smooth="yes"/>
      <point x="266" y="271"/>
      <point x="186" y="373"/>
      <point x="18" y="275" type="curve" smooth="yes"/>
    </contour>
    <contour>
      <point x="374" y="-139" type="line"/>
      <point x="233" y="-245" type="line"/>
      <point x="288" y="-340" type="line"/>
      <point x="533" y="-416" type="line"/>
      <point x="614" y="-365"/>
      <point x="600" y="-308"/>
      <point x="568" y="-252" type="curve" smooth="yes"/>
      <point x="471" y="-82" type="line"/>
    </contour>
    <contour>
      <point x="356" y="-153" type="line"/>
      <point x="421" y="-280" type="line"/>
      <point x="1134" y="153" type="line"/>
      <point x="1042" y="225" type="line"/>
    </contour>
    <contour>
      <point x="970" y="1163" type="line"/>
      <point x="970" y="856" type="line"/>
      <point x="1058" y="880" type="line"/>
      <point x="990" y="897"/>
      <point x="929" y="904"/>
      <point x="877" y="904" type="curve" smooth="yes"/>
      <point x="534" y="904"/>
      <point x="407" y="748"/>
      <point x="407" y="505" type="curve" smooth="yes"/>
      <point x="407" y="246"/>
      <point x="562" y="95"/>
      <point x="866" y="95" type="curve" smooth="yes"/>
      <point x="983" y="95"/>
      <point x="1085" y="116"/>
      <point x="1164" y="169" type="curve" smooth="yes"/>
      <point x="1234" y="215"/>
      <point x="1260" y="268"/>
      <point x="1260" y="324" type="curve" smooth="yes"/>
      <point x="1260" y="411"/>
      <point x="1179" y="480"/>
      <point x="1071" y="511" type="curve"/>
      <point x="980" y="435" type="line"/>
      <point x="1079" y="239" type="line"/>
      <point x="1120" y="297" type="line"/>
      <point x="1024" y="236"/>
      <point x="955" y="216"/>
      <point x="860" y="216" type="curve" smooth="yes"/>
      <point x="682" y="216"/>
      <point x="570" y="286"/>
      <point x="570" y="489" type="curve" smooth="yes"/>
      <point x="570" y="697"/>
      <point x="676" y="764"/>
      <point x="903" y="764" type="curve" smooth="yes"/>
      <point x="1007" y="764"/>
      <point x="1087" y="759"/>
      <point x="1127" y="756" type="curve"/>
      <point x="1127" y="1163" type="line"/>
    </contour>
    <contour>
      <point x="1088" y="214" type="line"/>
      <point x="1268" y="-129" type="line"/>
      <point x="1392" y="-54" type="line"/>
      <point x="1182" y="256" type="line"/>
    </contour>
    <contour>
      <point x="-20" y="1262" type="line"/>
      <point x="-20" y="1129" type="line"/>
      <point x="1381" y="1129" type="line"/>
      <point x="1381" y="1262" type="line"/>
    </contour>
    <contour>
      <point x="1049" y="1168" type="move" name="top"/>
    </contour>
    <contour>
      <point x="1232" y="-49" type="move" name="bottom"/>
    </contour>
    <contour>
      <point x="762" y="1168" type="move" name="topcandra"/>
    </contour>
  </outline>
</glyph>
<glyph name="d_ga-deva" format="1">
  <advance width="1031"/>
  <outline>
    <contour>
      <point x="412" y="-160" type="line"/>
      <point x="233" y="-181" type="line"/>
      <point x="233" y="-290" type="line"/>
      <point x="409" y="-485" type="line"/>
      <point x="511" y="-483"/>
      <point x="534" y="-429"/>
      <point x="534" y="-362" type="curve" smooth="yes"/>
      <point x="534" y="-160" type="line"/>
    </contour>
    <contour>
      <point x="385" y="175" type="line"/>
      <point x="382" y="-360" type="line"/>
      <point x="534" y="-228" type="line"/>
      <point x="536" y="175" type="line"/>
    </contour>
    <component base="da-deva"/>
    <contour>
      <point x="723" y="1168" type="move" name="top"/>
    </contour>
    <contour>
      <point x="868" y="-24" type="move" name="bottom"/>
    </contour>
    <contour>
      <point x="540" y="1167" type="move" name="topcandra"/>
    </contour>
  </outline>
</glyph>
<glyph name="d_ya-deva" format="1">
  <advance width="1226"/>
  <outline>
    <contour>
      <point x="533" y="614" type="line"/>
      <point x="193" y="608"/>
      <point x="108" y="452"/>
      <point x="108" y="321" type="curve" smooth="yes"/>
      <point x="108" y="159"/>
      <point x="227" y="30"/>
      <point x="454" y="30" type="curve" smooth="yes"/>
      <point x="680" y="30"/>
      <point x="836" y="160"/>
      <point x="927" y="264" type="curve"/>
      <point x="906" y="422" type="line"/>
      <point x="814" y="288"/>
      <point x="649" y="164"/>
      <point x="452" y="164" type="curve" smooth="yes"/>
      <point x="323" y="164"/>
      <point x="265" y="224"/>
      <point x="265" y="308" type="curve" smooth="yes"/>
      <point x="265" y="416"/>
      <point x="342" y="473"/>
      <point x="542" y="486" type="curve"/>
    </contour>
    <contour>
      <point x="530" y="959" type="line"/>
      <point x="333" y="958" type="line" smooth="yes"/>
      <point x="146" y="957"/>
      <point x="68" y="884"/>
      <point x="68" y="760" type="curve" smooth="yes"/>
      <point x="68" y="648"/>
      <point x="149" y="534"/>
      <point x="253" y="473" type="curve"/>
      <point x="308" y="554" type="line"/>
      <point x="243" y="596"/>
      <point x="208" y="663"/>
      <point x="208" y="729" type="curve" smooth="yes"/>
      <point x="208" y="778"/>
      <point x="227" y="820"/>
      <point x="386" y="820" type="curve" smooth="yes"/>
      <point x="543" y="820" type="line"/>
    </contour>
    <contour>
      <point x="599" y="1200" type="line"/>
      <point x="444" y="1200" type="line"/>
      <point x="444" y="820" type="line"/>
      <point x="599" y="820" type="line"/>
    </contour>
    <contour>
      <point x="869" y="1208" type="line"/>
      <point x="869" y="-10" type="line"/>
      <point x="1026" y="-10" type="line"/>
      <point x="1026" y="1208" type="line"/>
    </contour>
    <contour>
      <point x="-15" y="1262" type="line"/>
      <point x="-15" y="1129" type="line"/>
      <point x="1241" y="1129" type="line"/>
      <point x="1241" y="1262" type="line"/>
    </contour>
    <contour>
      <point x="948" y="1168" type="move" name="top"/>
    </contour>
    <contour>
      <point x="948" y="28" type="move" name="bottom"/>
    </contour>
    <contour>
      <point x="726" y="1168" type="move" name="topcandra"/>
    </contour>
  </outline>
</glyph>
<glyph name="dd_dda-deva" format="1">
  <advance width="1072"/>
  <outline>
    <contour>
      <point x="428" y="982" type="line" smooth="yes"/>
      <point x="254" y="982"/>
      <point x="177" y="927"/>
      <point x="177" y="806" type="curve" smooth="yes"/>
      <point x="177" y="701"/>
      <point x="235" y="583"/>
      <point x="300" y="530" type="curve"/>
      <point x="328" y="510"/>
      <point x="346" y="509"/>
      <point x="363" y="511" type="curve" smooth="yes"/>
      <point x="412" y="516"/>
      <point x="566" y="538"/>
      <point x="680" y="538" type="curve" smooth="yes"/>
      <point x="803" y="538"/>
      <point x="840" y="507"/>
      <point x="840" y="434" type="curve" smooth="yes"/>
      <point x="840" y="336"/>
      <point x="757" y="293"/>
      <point x="594" y="293" type="curve" smooth="yes"/>
      <point x="389" y="293"/>
      <point x="285" y="358"/>
      <point x="176" y="469" type="curve"/>
      <point x="97" y="393" type="line"/>
      <point x="238" y="226"/>
      <point x="404" y="170"/>
      <point x="585" y="165" type="curve" smooth="yes"/>
      <point x="799" y="165"/>
      <point x="983" y="233"/>
      <point x="983" y="449" type="curve" smooth="yes"/>
      <point x="983" y="647"/>
      <point x="828" y="673"/>
      <point x="668" y="672" type="curve" smooth="yes"/>
      <point x="555" y="671"/>
      <point x="413" y="654"/>
      <point x="339" y="639" type="curve"/>
      <point x="361" y="626" type="line"/>
      <point x="344" y="640"/>
      <point x="313" y="701"/>
      <point x="313" y="762" type="curve" smooth="yes"/>
      <point x="313" y="829"/>
      <point x="344" y="851"/>
      <point x="464" y="851" type="curve" smooth="yes"/>
      <point x="810" y="851" type="line"/>
      <point x="793" y="982" type="line"/>
    </contour>
    <contour>
      <point x="266" y="265"/>
      <point x="181" y="195"/>
      <point x="181" y="91" type="curve" smooth="yes"/>
      <point x="186" y="-3"/>
      <point x="239" y="-116"/>
      <point x="303" y="-165" type="curve" smooth="yes"/>
      <point x="331" y="-187"/>
      <point x="349" y="-186"/>
      <point x="366" y="-184" type="curve" smooth="yes"/>
      <point x="415" y="-179"/>
      <point x="569" y="-157"/>
      <point x="683" y="-157" type="curve" smooth="yes"/>
      <point x="806" y="-157"/>
      <point x="843" y="-188"/>
      <point x="843" y="-261" type="curve" smooth="yes"/>
      <point x="843" y="-357"/>
      <point x="760" y="-402"/>
      <point x="597" y="-402" type="curve" smooth="yes"/>
      <point x="383" y="-402"/>
      <point x="289" y="-334"/>
      <point x="180" y="-223" type="curve"/>
      <point x="100" y="-301" type="line"/>
      <point x="231" y="-461"/>
      <point x="403" y="-532"/>
      <point x="588" y="-532" type="curve" smooth="yes"/>
      <point x="802" y="-532"/>
      <point x="986" y="-459"/>
      <point x="986" y="-246" type="curve" smooth="yes"/>
      <point x="986" y="-48"/>
      <point x="831" y="-22"/>
      <point x="671" y="-23" type="curve" smooth="yes"/>
      <point x="558" y="-24"/>
      <point x="416" y="-42"/>
      <point x="342" y="-56" type="curve"/>
      <point x="367" y="-69" type="line"/>
      <point x="346" y="-55"/>
      <point x="316" y="6"/>
      <point x="316" y="66" type="curve" smooth="yes"/>
      <point x="316" y="123"/>
      <point x="356" y="166"/>
      <point x="482" y="166" type="curve" smooth="yes"/>
      <point x="584" y="165" type="line"/>
      <point x="442" y="259" type="line"/>
    </contour>
    <contour>
      <point x="-15" y="1262" type="line"/>
      <point x="-15" y="1129" type="line"/>
      <point x="1087" y="1129" type="line"/>
      <point x="1087" y="1262" type="line"/>
    </contour>
    <contour>
      <point x="719" y="1217" type="line"/>
      <point x="719" y="851" type="line"/>
      <point x="872" y="851" type="line"/>
      <point x="872" y="1217" type="line"/>
    </contour>
    <contour>
      <point x="794" y="1168" type="move" name="top"/>
    </contour>
    <contour>
      <point x="675" y="-494" type="move" name="bottom"/>
    </contour>
    <contour>
      <point x="574" y="1168" type="move" name="topcandra"/>
    </contour>
  </outline>
</glyph>
<glyph name="dh-deva" format="1">
  <advance width="730"/>
  <outline>
    <contour>
      <point x="244" y="830"/>
      <point x="140" y="670"/>
      <point x="140" y="516" type="curve"/>
      <point x="140" y="332"/>
      <point x="264" y="209"/>
      <point x="473" y="209" type="curve" smooth="yes"/>
      <point x="652" y="209"/>
      <point x="830" y="293"/>
      <point x="960" y="450" type="curve"/>
      <point x="950" y="627" type="line"/>
      <point x="788" y="420"/>
      <point x="637" y="345"/>
      <point x="487" y="345" type="curve" smooth="yes"/>
      <point x="356" y="345"/>
      <point x="301" y="404"/>
      <point x="301" y="512" type="curve" smooth="yes"/>
      <point x="301" y="634"/>
      <point x="382" y="694"/>
      <point x="597" y="702" type="curve"/>
      <point x="592" y="835" type="line"/>
    </contour>
    <contour>
      <point x="274" y="1280"/>
      <point x="87" y="1213"/>
      <point x="87" y="1017" type="curve" smooth="yes"/>
      <point x="87" y="896"/>
      <point x="161" y="798"/>
      <point x="360" y="725" type="curve"/>
      <point x="454" y="786" type="line"/>
      <point x="299" y="843"/>
      <point x="249" y="912"/>
      <point x="250" y="1000" type="curve" smooth="yes"/>
      <point x="251" y="1115"/>
      <point x="343" y="1146"/>
      <point x="446" y="1147" type="curve" smooth="yes"/>
      <point x="488" y="1147"/>
      <point x="538" y="1143"/>
      <point x="589" y="1134" type="curve"/>
      <point x="609" y="1260" type="line"/>
      <point x="561" y="1273"/>
      <point x="491" y="1281"/>
      <point x="435" y="1280" type="curve" smooth="yes"/>
    </contour>
  </outline>
</glyph>
<glyph name="g.a" format="1">
  <advance width="1144"/>
  <outline>
    <contour>
      <point x="236" y="-222" type="curve"/>
      <point x="174" y="-340" type="line"/>
      <point x="279" y="-409"/>
      <point x="408" y="-443"/>
      <point x="530" y="-443" type="curve" smooth="yes"/>
      <point x="812" y="-443"/>
      <point x="972" y="-296"/>
      <point x="972" y="-50" type="curve" smooth="yes"/>
      <point x="972" y="995" type="line"/>
      <point x="831" y="995" type="line"/>
      <point x="818" y="903" type="line"/>
      <point x="813" y="903" type="line"/>
      <point x="729" y="979"/>
      <point x="657" y="1020"/>
      <point x="539" y="1020" type="curve" smooth="yes"/>
      <point x="301" y="1020"/>
      <point x="102" y="829"/>
      <point x="102" y="513" type="curve" smooth="yes"/>
      <point x="102" y="196"/>
      <point x="252" y="10"/>
      <point x="515" y="10" type="curve" smooth="yes"/>
      <point x="639" y="10"/>
      <point x="732" y="70"/>
      <point x="808" y="143" type="curve"/>
      <point x="806" y="-46" type="line"/>
      <point x="800" y="-207"/>
      <point x="713" y="-309"/>
      <point x="530" y="-309" type="curve" smooth="yes"/>
      <point x="436" y="-309"/>
      <point x="334" y="-288"/>
    </contour>
    <contour>
      <point x="553" y="148" type="curve" smooth="yes"/>
      <point x="370" y="148"/>
      <point x="272" y="288"/>
      <point x="272" y="515" type="curve" smooth="yes"/>
      <point x="272" y="732"/>
      <point x="397" y="880"/>
      <point x="567" y="880" type="curve" smooth="yes"/>
      <point x="653" y="880"/>
      <point x="719" y="851"/>
      <point x="806" y="775" type="curve"/>
      <point x="806" y="286" type="line"/>
      <point x="719" y="194"/>
      <point x="651" y="148"/>
    </contour>
    <contour>
      <point x="901" y="-446" type="move" name="mark0"/>
    </contour>
  </outline>
</glyph>
<glyph name="h_matra_vocalicR-deva" format="1">
  <advance width="1004"/>
  <outline>
    <contour>
      <point x="283" y="575"/>
      <point x="88" y="458"/>
      <point x="88" y="228" type="curve" smooth="yes"/>
      <point x="88" y="18"/>
      <point x="244" y="-225"/>
      <point x="780" y="-347" type="curve"/>
      <point x="817" y="-223" type="line"/>
      <point x="484" y="-150"/>
      <point x="244" y="1"/>
      <point x="244" y="206" type="curve" smooth="yes"/>
      <point x="244" y="333"/>
      <point x="334" y="438"/>
      <point x="548" y="438" type="curve" smooth="yes"/>
      <point x="672" y="438"/>
      <point x="722" y="408"/>
      <point x="722" y="380" type="curve" smooth="yes"/>
      <point x="722" y="356"/>
      <point x="702" y="345"/>
      <point x="640" y="312" type="curve" smooth="yes"/>
      <point x="560" y="269"/>
      <point x="498" y="233"/>
      <point x="498" y="140" type="curve" smooth="yes"/>
      <point x="498" y="52"/>
      <point x="562" y="-45"/>
      <point x="739" y="-45" type="curve" smooth="yes"/>
      <point x="798" y="-45"/>
      <point x="854" y="-35"/>
      <point x="908" y="-10" type="curve"/>
      <point x="878" y="111" type="line"/>
      <point x="830" y="91"/>
      <point x="765" y="78"/>
      <point x="719" y="79" type="curve" smooth="yes"/>
      <point x="661" y="79"/>
      <point x="628" y="99"/>
      <point x="628" y="135" type="curve" smooth="yes"/>
      <point x="628" y="171"/>
      <point x="651" y="181"/>
      <point x="739" y="228" type="curve" smooth="yes"/>
      <point x="822" y="272"/>
      <point x="867" y="305"/>
      <point x="867" y="388" type="curve" smooth="yes"/>
      <point x="867" y="499"/>
      <point x="729" y="575"/>
      <point x="536" y="575" type="curve" smooth="yes"/>
    </contour>
    <contour>
      <point x="666" y="1172" type="line"/>
      <point x="666" y="925" type="line"/>
      <point x="377" y="925" type="line" smooth="yes"/>
      <point x="199" y="925"/>
      <point x="114" y="853"/>
      <point x="111" y="738" type="curve" smooth="yes"/>
      <point x="109" y="641"/>
      <point x="167" y="538"/>
      <point x="257" y="430" type="curve"/>
      <point x="354" y="473" type="line"/>
      <point x="307" y="550"/>
      <point x="265" y="640"/>
      <point x="269" y="702" type="curve" smooth="yes"/>
      <point x="272" y="757"/>
      <point x="308" y="787"/>
      <point x="404" y="787" type="curve" smooth="yes"/>
      <point x="822" y="787" type="line"/>
      <point x="822" y="1172" type="line"/>
    </contour>
    <contour>
      <point x="-15" y="1262" type="line"/>
      <point x="-15" y="1129" type="line"/>
      <point x="1019" y="1129" type="line"/>
      <point x="1019" y="1262" type="line"/>
    </contour>
    <contour>
      <point x="745" y="1168" type="move" name="top"/>
    </contour>
    <contour>
      <point x="689" y="-253" type="move" name="bottom"/>
    </contour>
    <contour>
      <point x="520" y="1168" type="move" name="topcandra"/>
    </contour>
  </outline>
</glyph>
<glyph name="iMatra-deva.02" format="1">
  <advance width="556"/>
  <outline>
    <contour>
      <point x="396" y="1199" type="line"/>
      <point x="274" y="1328"/>
      <point x="252" y="1396"/>
      <point x="252" y="1468" type="curve" smooth="yes"/>
      <point x="252" y="1588"/>
      <point x="319" y="1639"/>
      <point x="552" y="1639" type="curve" smooth="yes"/>
      <point x="907" y="1639"/>
      <point x="1222" y="1518"/>
      <point x="1530" y="1342" type="curve"/>
      <point x="1589" y="1433" type="line"/>
      <point x="1265" y="1645"/>
      <point x="905" y="1781"/>
      <point x="530" y="1781" type="curve" smooth="yes"/>
      <point x="253" y="1781"/>
      <point x="92" y="1706"/>
      <point x="92" y="1504" type="curve" smooth="yes"/>
      <point x="92" y="1399"/>
      <point x="138" y="1303"/>
      <point x="262" y="1195" type="curve"/>
    </contour>
    <contour>
      <point x="356" y="1" type="line"/>
      <point x="356" y="1199" type="line"/>
      <point x="200" y="1199" type="line"/>
      <point x="200" y="1" type="line"/>
    </contour>
    <contour>
      <point x="576" y="1129" type="line"/>
      <point x="576" y="1262" type="line"/>
      <point x="-15" y="1262" type="line"/>
      <point x="-15" y="1129" type="line"/>
    </contour>
    <contour>
      <point x="1560" y="1388" type="move" name="imatra"/>
    </contour>
    <contour>
      <point x="1386" y="1454" type="move" name="top"/>
    </contour>
    <contour>
      <point x="1671" y="1332" type="move" name="topcandra"/>
    </contour>
  </outline>
</glyph>
<glyph name="k_t_ra-deva" format="1">
  <advance width="2455"/>
  <outline>
    <contour>
      <point x="1157" y="1262" type="line"/>
      <point x="1157" y="1129" type="line"/>
      <point x="1812" y="1129" type="line"/>
      <point x="1812" y="1262" type="line"/>
    </contour>
    <contour>
      <point x="1813" y="801"/>
      <point x="1730" y="839"/>
      <point x="1583" y="839" type="curve" smooth="yes"/>
      <point x="1345" y="839"/>
      <point x="1230" y="744"/>
      <point x="1230" y="569" type="curve" smooth="yes"/>
      <point x="1230" y="366"/>
      <point x="1367" y="130"/>
      <point x="1493" y="-33" type="curve"/>
      <point x="1617" y="51" type="line"/>
      <point x="1464" y="269"/>
      <point x="1390" y="422"/>
      <point x="1390" y="546" type="curve" smooth="yes"/>
      <point x="1390" y="647"/>
      <point x="1438" y="693"/>
      <point x="1591" y="693" type="curve" smooth="yes"/>
      <point x="1718" y="693"/>
      <point x="1784" y="660"/>
      <point x="1934" y="531" type="curve"/>
      <point x="1925" y="704" type="line"/>
    </contour>
    <component base="k-deva"/>
    <component base="ra-deva" xOffset="1770"/>
  </outline>
</glyph>
<glyph name="kh_la-deva.loclMAR" format="1">
  <advance width="1601"/>
  <outline>
    <contour>
      <point x="-15" y="1262" type="line"/>
      <point x="-15" y="1129" type="line"/>
      <point x="1616" y="1129" type="line"/>
      <point x="1616" y="1262" type="line"/>
    </contour>
    <contour>
      <point x="368" y="1182" type="line"/>
      <point x="368" y="874" type="line" smooth="yes"/>
      <point x="368" y="775"/>
      <point x="343" y="729"/>
      <point x="268" y="728" type="curve" smooth="yes"/>
      <point x="237" y="727"/>
      <point x="202" y="736"/>
      <point x="160" y="770" type="curve"/>
      <point x="60" y="701" type="line"/>
      <point x="228" y="245"/>
      <point x="496" y="76"/>
      <point x="778" y="76" type="curve" smooth="yes"/>
      <point x="852" y="76"/>
      <point x="951" y="84"/>
      <point x="1041" y="121" type="curve"/>
      <point x="1014" y="246" type="line"/>
      <point x="954" y="225"/>
      <point x="878" y="210"/>
      <point x="786" y="210" type="curve" smooth="yes"/>
      <point x="556" y="210"/>
      <point x="343" y="357"/>
      <point x="231" y="654" type="curve"/>
      <point x="210" y="623" type="line"/>
      <point x="241" y="612"/>
      <point x="277" y="600"/>
      <point x="321" y="600" type="curve" smooth="yes"/>
      <point x="421" y="600"/>
      <point x="525" y="660"/>
      <point x="525" y="874" type="curve" smooth="yes"/>
      <point x="525" y="1182" type="line"/>
    </contour>
    <contour>
      <point x="790" y="956"/>
      <point x="654" y="862"/>
      <point x="654" y="655" type="curve" smooth="yes"/>
      <point x="654" y="489"/>
      <point x="750" y="346"/>
      <point x="959" y="346" type="curve" smooth="yes"/>
      <point x="1100" y="346"/>
      <point x="1227" y="398"/>
      <point x="1301" y="497" type="curve"/>
      <point x="1283" y="635" type="line"/>
      <point x="1210" y="531"/>
      <point x="1106" y="476"/>
      <point x="981" y="476" type="curve" smooth="yes"/>
      <point x="866" y="476"/>
      <point x="811" y="535"/>
      <point x="811" y="649" type="curve" smooth="yes"/>
      <point x="811" y="755"/>
      <point x="856" y="826"/>
      <point x="1018" y="826" type="curve" smooth="yes"/>
      <point x="1105" y="826"/>
      <point x="1196" y="814"/>
      <point x="1302" y="778" type="curve"/>
      <point x="1300" y="877" type="line"/>
      <point x="1240" y="919"/>
      <point x="1126" y="956"/>
      <point x="990" y="956" type="curve" smooth="yes"/>
    </contour>
    <contour>
      <point x="1245" y="1187" type="line"/>
      <point x="1245" y="-87" type="line"/>
      <point x="1401" y="-87" type="line"/>
      <point x="1401" y="1187" type="line"/>
    </contour>
    <contour>
      <point x="1015" y="-3"/>
      <point x="893" y="-133"/>
      <point x="893" y="-331" type="curve" smooth="yes"/>
      <point x="893" y="-366"/>
      <point x="897" y="-401"/>
      <point x="907" y="-435" type="curve"/>
      <point x="1041" y="-419" type="line"/>
      <point x="1038" y="-395"/>
      <point x="1036" y="-371"/>
      <point x="1036" y="-348" type="curve" smooth="yes"/>
      <point x="1036" y="-221"/>
      <point x="1096" y="-142"/>
      <point x="1208" y="-142" type="curve" smooth="yes"/>
      <point x="1313" y="-142"/>
      <point x="1373" y="-206"/>
      <point x="1373" y="-318" type="curve" smooth="yes"/>
      <point x="1373" y="-414"/>
      <point x="1341" y="-522"/>
      <point x="1168" y="-650" type="curve"/>
      <point x="1246" y="-755" type="line"/>
      <point x="1461" y="-615"/>
      <point x="1516" y="-448"/>
      <point x="1516" y="-321" type="curve" smooth="yes"/>
      <point x="1516" y="-122"/>
      <point x="1398" y="-3"/>
      <point x="1205" y="-3" type="curve" smooth="yes"/>
    </contour>
    <contour>
      <point x="506" y="-3"/>
      <point x="393" y="-113"/>
      <point x="393" y="-295" type="curve" smooth="yes"/>
      <point x="393" y="-497"/>
      <point x="505" y="-640"/>
      <point x="688" y="-750" type="curve"/>
      <point x="756" y="-646" type="line"/>
      <point x="597" y="-544"/>
      <point x="543" y="-441"/>
      <point x="543" y="-315" type="curve" smooth="yes"/>
      <point x="543" y="-189"/>
      <point x="621" y="-142"/>
      <point x="707" y="-142" type="curve" smooth="yes"/>
      <point x="817" y="-142"/>
      <point x="891" y="-222"/>
      <point x="950" y="-339" type="curve"/>
      <point x="979" y="-234" type="line"/>
      <point x="911" y="-70"/>
      <point x="811" y="-3"/>
      <point x="678" y="-3" type="curve" smooth="yes"/>
    </contour>
    <contour>
      <point x="1323" y="1168" type="move" name="top"/>
    </contour>
    <contour>
      <point x="1209" y="-661" type="move" name="bottom"/>
    </contour>
    <contour>
      <point x="890" y="1168" type="move" name="topcandra"/>
    </contour>
  </outline>
</glyph>
<glyph name="kh_na-deva" format="1">
  <advance width="2101"/>
  <outline>
    <contour>
      <point x="368" y="1182" type="line"/>
      <point x="368" y="820" type="line" smooth="yes"/>
      <point x="368" y="722"/>
      <point x="343" y="675"/>
      <point x="269" y="674" type="curve" smooth="yes"/>
      <point x="237" y="673"/>
      <point x="202" y="682"/>
      <point x="160" y="716" type="curve"/>
      <point x="60" y="647" type="line"/>
      <point x="252" y="119"/>
      <point x="497" y="-57"/>
      <point x="810" y="-57" type="curve" smooth="yes"/>
      <point x="881" y="-57"/>
      <point x="979" y="-50"/>
      <point x="1059" y="-13" type="curve"/>
      <point x="1027" y="116" type="line"/>
      <point x="969" y="96"/>
      <point x="894" y="80"/>
      <point x="804" y="80" type="curve" smooth="yes"/>
      <point x="563" y="80"/>
      <point x="361" y="236"/>
      <point x="231" y="600" type="curve"/>
      <point x="210" y="569" type="line"/>
      <point x="241" y="558"/>
      <point x="278" y="546"/>
      <point x="320" y="546" type="curve" smooth="yes"/>
      <point x="421" y="546"/>
      <point x="525" y="606"/>
      <point x="525" y="820" type="curve" smooth="yes"/>
      <point x="525" y="1182" type="line"/>
    </contour>
    <contour>
      <point x="785" y="962"/>
      <point x="618" y="881"/>
      <point x="617" y="618" type="curve" smooth="yes"/>
      <point x="616" y="426"/>
      <point x="707" y="278"/>
      <point x="952" y="278" type="curve" smooth="yes"/>
      <point x="1118" y="278"/>
      <point x="1247" y="351"/>
      <point x="1308" y="484" type="curve"/>
      <point x="1242" y="597" type="line"/>
      <point x="1190" y="473"/>
      <point x="1099" y="412"/>
      <point x="972" y="412" type="curve" smooth="yes"/>
      <point x="824" y="412"/>
      <point x="775" y="479"/>
      <point x="776" y="615" type="curve" smooth="yes"/>
      <point x="777" y="796"/>
      <point x="887" y="830"/>
      <point x="1021" y="830" type="curve" smooth="yes"/>
      <point x="1082" y="830"/>
      <point x="1188" y="819"/>
      <point x="1267" y="801" type="curve"/>
      <point x="1280" y="926" type="line"/>
      <point x="1205" y="946"/>
      <point x="1097" y="962"/>
      <point x="1016" y="962" type="curve" smooth="yes"/>
    </contour>
    <contour>
      <point x="-15" y="1262" type="line"/>
      <point x="-15" y="1129" type="line"/>
      <point x="1137" y="1129" type="line"/>
      <point x="1137" y="1262" type="line"/>
    </contour>
    <contour>
      <point x="1150" y="727" type="line"/>
      <point x="1150" y="596" type="line"/>
      <point x="1287" y="392" type="line"/>
      <point x="1407" y="392"/>
      <point x="1427" y="461"/>
      <point x="1427" y="545" type="curve" smooth="yes"/>
      <point x="1427" y="727" type="line"/>
    </contour>
    <contour>
      <point x="1297" y="727" type="line"/>
      <point x="1297" y="589" type="line"/>
      <point x="1817" y="589" type="line"/>
      <point x="1817" y="727" type="line"/>
    </contour>
    <contour>
      <point x="1744" y="1194" type="line"/>
      <point x="1744" y="0" type="line"/>
      <point x="1901" y="0" type="line"/>
      <point x="1901" y="1194" type="line"/>
    </contour>
    <contour>
      <point x="1102" y="1262" type="line"/>
      <point x="1102" y="1129" type="line"/>
      <point x="2116" y="1129" type="line"/>
      <point x="2116" y="1262" type="line"/>
    </contour>
    <contour>
      <point x="1294" y="58" type="move" name="nukta"/>
    </contour>
    <contour>
      <point x="1823" y="1168" type="move" name="top"/>
    </contour>
    <contour>
      <point x="1542" y="1168" type="move" name="topcandra"/>
    </contour>
    <contour>
      <point x="1823" y="28" type="move" name="bottom"/>
    </contour>
  </outline>
</glyph>
<glyph name="khh_ta-deva" format="1">
  <advance width="2225"/>
  <outline>
    <contour>
      <point x="368" y="1182" type="line"/>
      <point x="368" y="820" type="line" smooth="yes"/>
      <point x="368" y="722"/>
      <point x="343" y="675"/>
      <point x="269" y="674" type="curve" smooth="yes"/>
      <point x="237" y="673"/>
      <point x="202" y="682"/>
      <point x="160" y="716" type="curve"/>
      <point x="60" y="647" type="line"/>
      <point x="252" y="119"/>
      <point x="497" y="-57"/>
      <point x="810" y="-57" type="curve" smooth="yes"/>
      <point x="881" y="-57"/>
      <point x="979" y="-50"/>
      <point x="1059" y="-13" type="curve"/>
      <point x="1027" y="116" type="line"/>
      <point x="969" y="96"/>
      <point x="894" y="80"/>
      <point x="804" y="80" type="curve" smooth="yes"/>
      <point x="563" y="80"/>
      <point x="361" y="236"/>
      <point x="231" y="600" type="curve"/>
      <point x="210" y="569" type="line"/>
      <point x="241" y="558"/>
      <point x="278" y="546"/>
      <point x="320" y="546" type="curve" smooth="yes"/>
      <point x="421" y="546"/>
      <point x="525" y="606"/>
      <point x="525" y="820" type="curve" smooth="yes"/>
      <point x="525" y="1182" type="line"/>
    </contour>
    <contour>
      <point x="788" y="954"/>
      <point x="623" y="874"/>
      <point x="622" y="612" type="curve" smooth="yes"/>
      <point x="621" y="437"/>
      <point x="702" y="275"/>
      <point x="946" y="275" type="curve" smooth="yes"/>
      <point x="1101" y="275"/>
      <point x="1240" y="354"/>
      <point x="1300" y="481" type="curve"/>
      <point x="1243" y="594" type="line"/>
      <point x="1194" y="483"/>
      <point x="1087" y="409"/>
      <point x="968" y="409" type="curve" smooth="yes"/>
      <point x="830" y="409"/>
      <point x="780" y="476"/>
      <point x="781" y="614" type="curve" smooth="yes"/>
      <point x="782" y="780"/>
      <point x="873" y="822"/>
      <point x="1017" y="822" type="curve" smooth="yes"/>
      <point x="1071" y="822"/>
      <point x="1120" y="818"/>
      <point x="1181" y="804" type="curve"/>
      <point x="1194" y="924" type="line"/>
      <point x="1135" y="946"/>
      <point x="1075" y="954"/>
      <point x="1011" y="954" type="curve" smooth="yes"/>
    </contour>
    <contour>
      <point x="-15" y="1262" type="line"/>
      <point x="-15" y="1129" type="line"/>
      <point x="1137" y="1129" type="line"/>
      <point x="1137" y="1262" type="line"/>
    </contour>
    <component base="nukta-deva" xOffset="-127" yOffset="-1"/>
    <component base="ta-deva" xOffset="1117"/>
    <contour>
      <point x="149" y="27" type="move" name="nukta"/>
    </contour>
    <contour>
      <point x="455" y="1168" type="move" name="top"/>
    </contour>
    <contour>
      <point x="845" y="1167" type="move" name="topcandra"/>
    </contour>
    <contour>
      <point x="768" y="0" type="move" name="bottom"/>
    </contour>
  </outline>
</glyph>
<glyph name="khh_va-deva" format="1">
  <advance width="2151"/>
  <outline>
    <contour>
      <point x="373" y="1182" type="line"/>
      <point x="373" y="820" type="line" smooth="yes"/>
      <point x="373" y="722"/>
      <point x="348" y="675"/>
      <point x="274" y="674" type="curve" smooth="yes"/>
      <point x="242" y="673"/>
      <point x="207" y="682"/>
      <point x="165" y="716" type="curve"/>
      <point x="65" y="647" type="line"/>
      <point x="257" y="119"/>
      <point x="502" y="-57"/>
      <point x="815" y="-57" type="curve" smooth="yes"/>
      <point x="886" y="-57"/>
      <point x="984" y="-50"/>
      <point x="1064" y="-13" type="curve"/>
      <point x="1032" y="116" type="line"/>
      <point x="974" y="96"/>
      <point x="899" y="80"/>
      <point x="809" y="80" type="curve" smooth="yes"/>
      <point x="568" y="80"/>
      <point x="366" y="236"/>
      <point x="236" y="600" type="curve"/>
      <point x="215" y="569" type="line"/>
      <point x="246" y="558"/>
      <point x="283" y="546"/>
      <point x="325" y="546" type="curve" smooth="yes"/>
      <point x="426" y="546"/>
      <point x="530" y="606"/>
      <point x="530" y="820" type="curve" smooth="yes"/>
      <point x="530" y="1182" type="line"/>
    </contour>
    <contour>
      <point x="787" y="912"/>
      <point x="612" y="831"/>
      <point x="611" y="577" type="curve" smooth="yes"/>
      <point x="610" y="365"/>
      <point x="742" y="250"/>
      <point x="935" y="250" type="curve" smooth="yes"/>
      <point x="1100" y="250"/>
      <point x="1234" y="329"/>
      <point x="1314" y="441" type="curve"/>
      <point x="1257" y="554" type="line"/>
      <point x="1188" y="458"/>
      <point x="1086" y="384"/>
      <point x="963" y="384" type="curve" smooth="yes"/>
      <point x="829" y="384"/>
      <point x="769" y="446"/>
      <point x="770" y="579" type="curve" smooth="yes"/>
      <point x="771" y="739"/>
      <point x="864" y="780"/>
      <point x="986" y="780" type="curve" smooth="yes"/>
      <point x="1040" y="780"/>
      <point x="1104" y="776"/>
      <point x="1160" y="761" type="curve"/>
      <point x="1178" y="882" type="line"/>
      <point x="1119" y="903"/>
      <point x="1044" y="912"/>
      <point x="980" y="912" type="curve" smooth="yes"/>
    </contour>
    <contour>
      <point x="1329" y="917"/>
      <point x="1193" y="819"/>
      <point x="1193" y="584" type="curve" smooth="yes"/>
      <point x="1193" y="420"/>
      <point x="1278" y="265"/>
      <point x="1503" y="265" type="curve" smooth="yes"/>
      <point x="1654" y="265"/>
      <point x="1776" y="327"/>
      <point x="1850" y="416" type="curve"/>
      <point x="1832" y="558" type="line"/>
      <point x="1759" y="464"/>
      <point x="1655" y="399"/>
      <point x="1525" y="399" type="curve" smooth="yes"/>
      <point x="1408" y="399"/>
      <point x="1352" y="453"/>
      <point x="1352" y="583" type="curve" smooth="yes"/>
      <point x="1352" y="711"/>
      <point x="1402" y="781"/>
      <point x="1562" y="783" type="curve" smooth="yes"/>
      <point x="1644" y="785"/>
      <point x="1745" y="768"/>
      <point x="1851" y="739" type="curve"/>
      <point x="1849" y="838" type="line"/>
      <point x="1789" y="880"/>
      <point x="1675" y="917"/>
      <point x="1539" y="917" type="curve" smooth="yes"/>
    </contour>
    <contour>
      <point x="1794" y="1187" type="line"/>
      <point x="1794" y="0" type="line"/>
      <point x="1950" y="0" type="line"/>
      <point x="1950" y="1187" type="line"/>
    </contour>
    <contour>
      <point x="-15" y="1262" type="line"/>
      <point x="-15" y="1129" type="line"/>
      <point x="2166" y="1129" type="line"/>
      <point x="2166" y="1262" type="line"/>
    </contour>
    <component base="nukta-deva" xOffset="-117" yOffset="-1"/>
    <contour>
      <point x="1272" y="58" type="move" name="nukta"/>
    </contour>
    <contour>
      <point x="1874" y="1168" type="move" name="top"/>
    </contour>
    <contour>
      <point x="1527" y="1168" type="move" name="topcandra"/>
    </contour>
    <contour>
      <point x="1876" y="28" type="move" name="bottom"/>
    </contour>
  </outline>
</glyph>
<glyph name="ldot.a" format="1">
  <advance width="738"/>
  <outline>
    <contour>
      <point x="169" y="0" type="line"/>
      <point x="335" y="0" type="line"/>
      <point x="335" y="1458" type="line"/>
      <point x="169" y="1458" type="line"/>
    </contour>
    <contour>
      <point x="499" y="666" type="curve" smooth="yes"/>
      <point x="499" y="590"/>
      <point x="554" y="540"/>
      <point x="621" y="540" type="curve" smooth="yes"/>
      <point x="688" y="540"/>
      <point x="740" y="590"/>
      <point x="740" y="666" type="curve" smooth="yes"/>
      <point x="740" y="742"/>
      <point x="688" y="794"/>
      <point x="621" y="794" type="curve" smooth="yes"/>
      <point x="554" y="794"/>
      <point x="499" y="742"/>
    </contour>
  </outline>
</glyph>
<glyph name="n-deva" format="1">
  <advance width="552"/>
  <outline>
    <contour>
      <point x="48" y="759" type="line"/>
      <point x="48" y="628" type="line"/>
      <point x="191" y="420" type="line"/>
      <point x="305" y="420"/>
      <point x="325" y="488"/>
      <point x="325" y="573" type="curve" smooth="yes"/>
      <point x="325" y="759" type="line"/>
    </contour>
    <contour>
      <point x="180" y="759" type="line"/>
      <point x="180" y="621" type="line"/>
      <point x="750" y="621" type="line"/>
      <point x="750" y="760" type="line"/>
    </contour>
    <contour>
      <point x="-15" y="1262" type="line"/>
      <point x="-15" y="1129" type="line"/>
      <point x="582" y="1129" type="line"/>
      <point x="582" y="1262" type="line"/>
    </contour>
  </outline>
</glyph>
<glyph name="na_ra-deva" format="1">
  <advance width="1069"/>
  <outline>
    <contour>
      <point x="837" y="415" type="line"/>
      <point x="768" y="521" type="line"/>
      <point x="180" y="88" type="line"/>
      <point x="275" y="-26" type="line"/>
    </contour>
    <component base="na-deva"/>
    <contour>
      <point x="813" y="1168" type="move" name="top"/>
    </contour>
    <contour>
      <point x="812" y="28" type="move" name="bottom"/>
    </contour>
    <contour>
      <point x="541" y="1168" type="move" name="topcandra"/>
    </contour>
  </outline>
</glyph>
<glyph name="ng_kha-deva" format="1">
  <advance width="1271"/>
  <outline>
    <contour>
      <point x="1008" y="832"/>
      <point x="981" y="806"/>
      <point x="981" y="745" type="curve" smooth="yes"/>
      <point x="981" y="684"/>
      <point x="1008" y="658"/>
      <point x="1070" y="658" type="curve" smooth="yes"/>
      <point x="1131" y="658"/>
      <point x="1158" y="684"/>
      <point x="1158" y="745" type="curve" smooth="yes"/>
      <point x="1158" y="806"/>
      <point x="1131" y="832"/>
      <point x="1070" y="832" type="curve" smooth="yes"/>
    </contour>
    <contour>
      <point x="-5" y="1261" type="line"/>
      <point x="-5" y="1129" type="line"/>
      <point x="1286" y="1129" type="line"/>
      <point x="1286" y="1261" type="line"/>
    </contour>
    <contour>
      <point x="785" y="1216" type="line"/>
      <point x="785" y="850" type="line"/>
      <point x="936" y="850" type="line"/>
      <point x="936" y="1216" type="line"/>
    </contour>
    <contour>
      <point x="477" y="981" type="line" smooth="yes"/>
      <point x="303" y="981"/>
      <point x="226" y="926"/>
      <point x="226" y="805" type="curve" smooth="yes"/>
      <point x="226" y="701"/>
      <point x="284" y="583"/>
      <point x="349" y="530" type="curve"/>
      <point x="377" y="509"/>
      <point x="395" y="508"/>
      <point x="412" y="510" type="curve" smooth="yes"/>
      <point x="461" y="515"/>
      <point x="615" y="538"/>
      <point x="744" y="538" type="curve" smooth="yes"/>
      <point x="867" y="538"/>
      <point x="904" y="506"/>
      <point x="904" y="433" type="curve" smooth="yes"/>
      <point x="904" y="335"/>
      <point x="821" y="293"/>
      <point x="658" y="293" type="curve" smooth="yes"/>
      <point x="438" y="293"/>
      <point x="334" y="358"/>
      <point x="225" y="469" type="curve"/>
      <point x="146" y="388" type="line"/>
      <point x="281" y="227"/>
      <point x="453" y="166"/>
      <point x="649" y="160" type="curve" smooth="yes"/>
      <point x="863" y="158"/>
      <point x="1047" y="228"/>
      <point x="1047" y="449" type="curve" smooth="yes"/>
      <point x="1047" y="646"/>
      <point x="892" y="672"/>
      <point x="732" y="671" type="curve" smooth="yes"/>
      <point x="604" y="671"/>
      <point x="462" y="653"/>
      <point x="388" y="638" type="curve"/>
      <point x="410" y="626" type="line"/>
      <point x="393" y="640"/>
      <point x="362" y="700"/>
      <point x="362" y="762" type="curve" smooth="yes"/>
      <point x="362" y="828"/>
      <point x="393" y="850"/>
      <point x="513" y="850" type="curve" smooth="yes"/>
      <point x="874" y="850" type="line"/>
      <point x="857" y="981" type="line"/>
    </contour>
    <contour>
      <point x="238" y="319" type="line"/>
      <point x="238" y="36" type="line" smooth="yes"/>
      <point x="238" y="-28"/>
      <point x="218" y="-64"/>
      <point x="160" y="-65" type="curve" smooth="yes"/>
      <point x="139" y="-65"/>
      <point x="112" y="-61"/>
      <point x="84" y="-40" type="curve"/>
      <point x="6" y="-95" type="line"/>
      <point x="136" y="-546"/>
      <point x="363" y="-674"/>
      <point x="610" y="-674" type="curve" smooth="yes"/>
      <point x="659" y="-674"/>
      <point x="725" y="-666"/>
      <point x="765" y="-648" type="curve"/>
      <point x="749" y="-532" type="line"/>
      <point x="711" y="-541"/>
      <point x="664" y="-550"/>
      <point x="608" y="-550" type="curve" smooth="yes"/>
      <point x="412" y="-550"/>
      <point x="240" y="-428"/>
      <point x="151" y="-126" type="curve"/>
      <point x="115" y="-162" type="line"/>
      <point x="141" y="-172"/>
      <point x="170" y="-181"/>
      <point x="206" y="-181" type="curve" smooth="yes"/>
      <point x="292" y="-181"/>
      <point x="378" y="-132"/>
      <point x="378" y="34" type="curve" smooth="yes"/>
      <point x="378" y="320" type="line"/>
    </contour>
    <contour>
      <point x="524" y="59"/>
      <point x="421" y="-17"/>
      <point x="421" y="-190" type="curve" smooth="yes"/>
      <point x="421" y="-359"/>
      <point x="532" y="-441"/>
      <point x="669" y="-441" type="curve" smooth="yes"/>
      <point x="766" y="-441"/>
      <point x="852" y="-407"/>
      <point x="909" y="-354" type="curve"/>
      <point x="892" y="-229" type="line"/>
      <point x="844" y="-282"/>
      <point x="774" y="-324"/>
      <point x="685" y="-324" type="curve" smooth="yes"/>
      <point x="598" y="-324"/>
      <point x="561" y="-280"/>
      <point x="561" y="-194" type="curve" smooth="yes"/>
      <point x="561" y="-117"/>
      <point x="593" y="-65"/>
      <point x="706" y="-64" type="curve" smooth="yes"/>
      <point x="761" y="-63"/>
      <point x="827" y="-74"/>
      <point x="905" y="-96" type="curve"/>
      <point x="907" y="-17" type="line"/>
      <point x="863" y="30"/>
      <point x="771" y="59"/>
      <point x="684" y="59" type="curve" smooth="yes"/>
    </contour>
    <contour>
      <point x="867" y="325" type="line"/>
      <point x="867" y="-642" type="line"/>
      <point x="1011" y="-642" type="line"/>
      <point x="1011" y="325" type="line"/>
    </contour>
    <contour>
      <point x="859" y="1168" type="move" name="top"/>
    </contour>
    <contour>
      <point x="940" y="-614" type="move" name="bottom"/>
    </contour>
    <contour>
      <point x="641" y="1168" type="move" name="topcandra"/>
    </contour>
  </outline>
</glyph>
<glyph name="ny_ca-deva" format="1">
  <advance width="2214"/>
  <outline>
    <contour>
      <point x="530" y="875"/>
      <point x="480" y="868"/>
      <point x="430" y="847" type="curve"/>
      <point x="458" y="718" type="line"/>
      <point x="499" y="728"/>
      <point x="541" y="733"/>
      <point x="591" y="733" type="curve" smooth="yes"/>
      <point x="700" y="733"/>
      <point x="782" y="681"/>
      <point x="784" y="531" type="curve" smooth="yes"/>
      <point x="785" y="378"/>
      <point x="698" y="306"/>
      <point x="572" y="306" type="curve" smooth="yes"/>
      <point x="377" y="306"/>
      <point x="260" y="455"/>
      <point x="194" y="817" type="curve"/>
      <point x="68" y="790" type="line"/>
      <point x="142" y="307"/>
      <point x="353" y="164"/>
      <point x="574" y="164" type="curve" smooth="yes"/>
      <point x="799" y="164"/>
      <point x="929" y="298"/>
      <point x="929" y="525" type="curve" smooth="yes"/>
      <point x="929" y="754"/>
      <point x="788" y="875"/>
      <point x="587" y="875" type="curve" smooth="yes"/>
    </contour>
    <contour>
      <point x="1093" y="558"/>
      <point x="941" y="530"/>
      <point x="841" y="547" type="curve"/>
      <point x="882" y="419" type="line"/>
      <point x="967" y="399"/>
      <point x="1144" y="435"/>
      <point x="1237" y="482" type="curve"/>
      <point x="1205" y="624" type="line"/>
    </contour>
    <contour>
      <point x="-15" y="1262" type="line"/>
      <point x="-15" y="1129" type="line"/>
      <point x="1007" y="1129" type="line"/>
      <point x="1007" y="1262" type="line"/>
    </contour>
    <component base="ca-deva" xOffset="979"/>
    <contour>
      <point x="1939" y="1168" type="move" name="top"/>
    </contour>
    <contour>
      <point x="1941" y="28" type="move" name="bottom"/>
    </contour>
    <contour>
      <point x="1939" y="1167" type="move" name="topcandra"/>
    </contour>
  </outline>
</glyph>
<glyph name="nya_ra-deva" format="1">
  <advance width="1458"/>
  <outline>
    <contour>
      <point x="509" y="924"/>
      <point x="459" y="917"/>
      <point x="409" y="896" type="curve"/>
      <point x="437" y="766" type="line"/>
      <point x="478" y="777"/>
      <point x="520" y="782"/>
      <point x="570" y="782" type="curve" smooth="yes"/>
      <point x="679" y="782"/>
      <point x="761" y="729"/>
      <point x="762" y="599" type="curve" smooth="yes"/>
      <point x="764" y="481"/>
      <point x="681" y="409"/>
      <point x="551" y="409" type="curve" smooth="yes"/>
      <point x="356" y="409"/>
      <point x="239" y="558"/>
      <point x="176" y="854" type="curve"/>
      <point x="50" y="828" type="line"/>
      <point x="121" y="410"/>
      <point x="332" y="267"/>
      <point x="553" y="267" type="curve" smooth="yes"/>
      <point x="778" y="267"/>
      <point x="908" y="402"/>
      <point x="908" y="588" type="curve" smooth="yes"/>
      <point x="908" y="802"/>
      <point x="767" y="924"/>
      <point x="566" y="924" type="curve" smooth="yes"/>
    </contour>
    <contour>
      <point x="698" y="69" type="line"/>
      <point x="792" y="-39" type="line"/>
      <point x="1236" y="324" type="line"/>
      <point x="1158" y="414" type="line"/>
    </contour>
    <contour>
      <point x="1092" y="695"/>
      <point x="923" y="662"/>
      <point x="812" y="675" type="curve"/>
      <point x="847" y="548" type="line"/>
      <point x="945" y="530"/>
      <point x="1150" y="568"/>
      <point x="1223" y="636" type="curve"/>
      <point x="1216" y="788" type="line"/>
    </contour>
    <contour>
      <point x="1102" y="1194" type="line"/>
      <point x="1102" y="0" type="line"/>
      <point x="1258" y="0" type="line"/>
      <point x="1258" y="1194" type="line"/>
    </contour>
    <contour>
      <point x="-15" y="1262" type="line"/>
      <point x="-15" y="1129" type="line"/>
      <point x="1473" y="1129" type="line"/>
      <point x="1473" y="1262" type="line"/>
    </contour>
    <contour>
      <point x="1180" y="1168" type="move" name="top"/>
    </contour>
    <contour>
      <point x="1188" y="28" type="move" name="bottom"/>
    </contour>
    <contour>
      <point x="801" y="1168" type="move" name="topcandra"/>
    </contour>
  </outline>
</glyph>
<glyph name="one.tnum" format="1">
  <advance width="1017"/>
  <outline>
    <contour>
      <point x="162" y="0" type="line" name="hr00"/>
      <point x="898" y="0" type="line"/>
      <point x="898" y="137" type="line"/>
      <point x="628" y="137" type="line"/>
      <point x="628" y="1176" type="line"/>
      <point x="500" y="1176" type="line"/>
      <point x="428" y="1133"/>
      <point x="342" y="1100"/>
      <point x="224" y="1079" type="curve"/>
      <point x="224" y="969" type="line"/>
      <point x="461" y="983" type="line"/>
      <point x="461" y="137" type="line"/>
      <point x="162" y="137" type="line"/>
    </contour>
  </outline>
</glyph>
<glyph name="parenright.numr" format="1">
  <advance width="484"/>
  <outline>
    <contour>
      <point x="80" y="430" type="curve" name="hr00"/>
      <point x="175" y="384" type="line"/>
      <point x="288" y="551"/>
      <point x="351" y="713"/>
      <point x="351" y="944" type="curve" smooth="yes"/>
      <point x="351" y="1174"/>
      <point x="288" y="1335"/>
      <point x="175" y="1501" type="curve"/>
      <point x="80" y="1456" type="line"/>
      <point x="184" y="1296"/>
      <point x="225" y="1126"/>
      <point x="225" y="944" type="curve" smooth="yes"/>
      <point x="225" y="762"/>
      <point x="184" y="592"/>
    </contour>
  </outline>
</glyph>
<glyph name="rakar-deva" format="1">
  <advance width="540"/>
  <outline>
    <contour>
      <point x="338" y="288" type="line"/>
      <point x="198" y="292" type="line"/>
      <point x="621" y="31" type="line"/>
      <point x="693" y="144" type="line"/>
      <point x="270" y="408" type="line"/>
      <point x="-154" y="110" type="line"/>
      <point x="-77" y="3" type="line"/>
    </contour>
    <contour>
      <point x="270" y="365" type="move" name="_bottom"/>
    </contour>
    <contour>
      <point x="316" y="75" type="move" name="bottom"/>
    </contour>
  </outline>
</glyph>
<glyph name="seven.tnum" format="1">
  <advance width="1017"/>
  <outline>
    <contour>
      <point x="363" y="-152" type="curve" name="hr00"/>
      <point x="536" y="-152" type="line"/>
      <point x="548" y="362"/>
      <point x="622" y="675"/>
      <point x="931" y="1072" type="curve"/>
      <point x="931" y="1176" type="line"/>
      <point x="90" y="1176" type="line"/>
      <point x="90" y="1031" type="line"/>
      <point x="742" y="1031" type="line"/>
      <point x="484" y="671"/>
      <point x="376" y="345"/>
    </contour>
  </outline>
</glyph>
<glyph name="sh_na-deva" format="1">
  <advance width="1325"/>
  <outline>
    <contour>
      <point x="254" y="141" type="line"/>
      <point x="322" y="31" type="line"/>
      <point x="557" y="-61" type="line"/>
      <point x="638" y="-7"/>
      <point x="618" y="64"/>
      <point x="569" y="132" type="curve" smooth="yes"/>
      <point x="537" y="176" type="line"/>
      <point x="1014" y="520" type="line"/>
      <point x="935" y="618" type="line"/>
    </contour>
    <contour>
      <point x="969" y="1199" type="line"/>
      <point x="969" y="0" type="line"/>
      <point x="1125" y="0" type="line"/>
      <point x="1125" y="1199" type="line"/>
    </contour>
    <contour>
      <point x="847" y="1262" type="line"/>
      <point x="847" y="1129" type="line"/>
      <point x="1340" y="1129" type="line"/>
      <point x="1340" y="1262" type="line"/>
    </contour>
    <contour>
      <point x="264" y="1296"/>
      <point x="140" y="1196"/>
      <point x="140" y="1032" type="curve" smooth="yes"/>
      <point x="140" y="926"/>
      <point x="191" y="821"/>
      <point x="349" y="720" type="curve"/>
      <point x="478" y="781" type="line"/>
      <point x="323" y="869"/>
      <point x="289" y="948"/>
      <point x="289" y="1019" type="curve" smooth="yes"/>
      <point x="289" y="1112"/>
      <point x="345" y="1168"/>
      <point x="454" y="1168" type="curve" smooth="yes"/>
      <point x="549" y="1168"/>
      <point x="613" y="1119"/>
      <point x="613" y="1026" type="curve" smooth="yes"/>
      <point x="613" y="922"/>
      <point x="540" y="850"/>
      <point x="416" y="778" type="curve"/>
      <point x="291" y="705"/>
      <point x="171" y="641"/>
      <point x="52" y="577" type="curve"/>
      <point x="122" y="457" type="line"/>
      <point x="256" y="530"/>
      <point x="380" y="599"/>
      <point x="522" y="685" type="curve"/>
      <point x="683" y="783"/>
      <point x="765" y="884"/>
      <point x="765" y="1032" type="curve" smooth="yes"/>
      <point x="765" y="1206"/>
      <point x="643" y="1296"/>
      <point x="454" y="1296" type="curve" smooth="yes"/>
    </contour>
    <contour>
      <point x="402" y="675" type="line"/>
      <point x="616" y="549"/>
      <point x="822" y="506"/>
      <point x="1052" y="533" type="curve"/>
      <point x="1050" y="644" type="line"/>
      <point x="876" y="632"/>
      <point x="673" y="665"/>
      <point x="511" y="758" type="curve"/>
    </contour>
    <contour>
      <point x="1049" y="1168" type="move" name="top"/>
    </contour>
    <contour>
      <point x="1047" y="28" type="move" name="bottom"/>
    </contour>
    <contour>
      <point x="797" y="1168" type="move" name="topcandra"/>
    </contour>
  </outline>
</glyph>
<glyph name="sh_va-deva" format="1">
  <advance width="1324"/>
  <outline>
    <contour>
      <point x="397" y="696" type="line"/>
      <point x="507" y="629"/>
      <point x="585" y="581"/>
      <point x="795" y="533" type="curve"/>
      <point x="799" y="584" type="line"/>
      <point x="654" y="568"/>
      <point x="593" y="551"/>
      <point x="541" y="529" type="curve" smooth="yes"/>
      <point x="400" y="470"/>
      <point x="302" y="374"/>
      <point x="302" y="218" type="curve" smooth="yes"/>
      <point x="302" y="53"/>
      <point x="404" y="-82"/>
      <point x="609" y="-82" type="curve" smooth="yes"/>
      <point x="804" y="-82"/>
      <point x="988" y="61"/>
      <point x="1047" y="288" type="curve"/>
      <point x="982" y="370" type="line"/>
      <point x="914" y="160"/>
      <point x="763" y="58"/>
      <point x="632" y="58" type="curve" smooth="yes"/>
      <point x="525" y="58"/>
      <point x="462" y="114"/>
      <point x="462" y="216" type="curve" smooth="yes"/>
      <point x="462" y="313"/>
      <point x="516" y="379"/>
      <point x="607" y="421" type="curve" smooth="yes"/>
      <point x="694" y="462"/>
      <point x="828" y="484"/>
      <point x="928" y="484" type="curve" smooth="yes"/>
      <point x="952" y="484"/>
      <point x="977" y="483"/>
      <point x="1004" y="479" type="curve"/>
      <point x="1024" y="616" type="line"/>
      <point x="849" y="628"/>
      <point x="689" y="668"/>
      <point x="507" y="769" type="curve"/>
    </contour>
    <contour>
      <point x="968" y="1199" type="line"/>
      <point x="968" y="-41" type="line"/>
      <point x="1124" y="-41" type="line"/>
      <point x="1124" y="1199" type="line"/>
    </contour>
    <contour>
      <point x="846" y="1262" type="line"/>
      <point x="846" y="1129" type="line"/>
      <point x="1339" y="1129" type="line"/>
      <point x="1339" y="1262" type="line"/>
    </contour>
    <contour>
      <point x="264" y="1296"/>
      <point x="140" y="1196"/>
      <point x="140" y="1032" type="curve" smooth="yes"/>
      <point x="140" y="933"/>
      <point x="191" y="829"/>
      <point x="349" y="728" type="curve"/>
      <point x="478" y="791" type="line"/>
      <point x="323" y="879"/>
      <point x="289" y="954"/>
      <point x="289" y="1019" type="curve" smooth="yes"/>
      <point x="289" y="1112"/>
      <point x="345" y="1168"/>
      <point x="454" y="1168" type="curve" smooth="yes"/>
      <point x="549" y="1168"/>
      <point x="613" y="1119"/>
      <point x="613" y="1026" type="curve" smooth="yes"/>
      <point x="613" y="931"/>
      <point x="540" y="863"/>
      <point x="416" y="791" type="curve"/>
      <point x="291" y="718"/>
      <point x="171" y="654"/>
      <point x="52" y="590" type="curve"/>
      <point x="120" y="472" type="line"/>
      <point x="254" y="545"/>
      <point x="379" y="613"/>
      <point x="522" y="700" type="curve"/>
      <point x="675" y="792"/>
      <point x="765" y="899"/>
      <point x="765" y="1032" type="curve" smooth="yes"/>
      <point x="765" y="1206"/>
      <point x="643" y="1296"/>
      <point x="454" y="1296" type="curve" smooth="yes"/>
    </contour>
    <contour>
      <point x="1047" y="1168" type="move" name="top"/>
    </contour>
    <contour>
      <point x="1048" y="-16" type="move" name="bottom"/>
    </contour>
    <contour>
      <point x="797" y="1168" type="move" name="topcandra"/>
    </contour>
  </outline>
</glyph>
<glyph name="six.numr" format="1">
  <advance width="781"/>
  <outline>
    <contour>
      <point x="414" y="624" type="curve" name="hr01" smooth="yes"/>
      <point x="315" y="624"/>
      <point x="243" y="707"/>
      <point x="231" y="864" type="curve"/>
      <point x="293" y="929"/>
      <point x="347" y="953"/>
      <point x="406" y="953" type="curve" smooth="yes"/>
      <point x="507" y="953"/>
      <point x="561" y="885"/>
      <point x="561" y="788" type="curve" smooth="yes"/>
      <point x="561" y="692"/>
      <point x="500" y="624"/>
    </contour>
    <contour>
      <point x="649" y="1307" type="line" name="hr02"/>
      <point x="604" y="1339"/>
      <point x="547" y="1368"/>
      <point x="455" y="1368" type="curve" name="hr03" smooth="yes"/>
      <point x="259" y="1368"/>
      <point x="107" y="1226"/>
      <point x="107" y="924" type="curve" smooth="yes"/>
      <point x="107" y="672"/>
      <point x="228" y="520"/>
      <point x="416" y="520" type="curve" smooth="yes"/>
      <point x="568" y="520"/>
      <point x="683" y="639"/>
      <point x="683" y="793" type="curve" smooth="yes"/>
      <point x="683" y="942"/>
      <point x="593" y="1047"/>
      <point x="433" y="1047" type="curve" smooth="yes"/>
      <point x="356" y="1047"/>
      <point x="288" y="1020"/>
      <point x="231" y="965" type="curve"/>
      <point x="245" y="1170"/>
      <point x="341" y="1265"/>
      <point x="459" y="1265" type="curve" smooth="yes"/>
      <point x="515" y="1265"/>
      <point x="558" y="1244"/>
      <point x="597" y="1215" type="curve"/>
    </contour>
  </outline>
</glyph>
<glyph name="t_kha-deva" format="1">
  <advance width="2195"/>
  <outline>
    <contour>
      <point x="188" y="839"/>
      <point x="73" y="744"/>
      <point x="73" y="569" type="curve" smooth="yes"/>
      <point x="73" y="366"/>
      <point x="210" y="130"/>
      <point x="336" y="-33" type="curve"/>
      <point x="460" y="51" type="line"/>
      <point x="307" y="269"/>
      <point x="233" y="422"/>
      <point x="233" y="546" type="curve" smooth="yes"/>
      <point x="233" y="647"/>
      <point x="281" y="693"/>
      <point x="434" y="693" type="curve" smooth="yes"/>
      <point x="551" y="693"/>
      <point x="633" y="660"/>
      <point x="777" y="531" type="curve"/>
      <point x="768" y="704" type="line"/>
      <point x="663" y="801"/>
      <point x="563" y="839"/>
      <point x="426" y="839" type="curve" smooth="yes"/>
    </contour>
    <contour>
      <point x="-15" y="1262" type="line"/>
      <point x="-15" y="1129" type="line"/>
      <point x="666" y="1129" type="line"/>
      <point x="666" y="1262" type="line"/>
    </contour>
    <component base="kha-deva" xOffset="594"/>
  </outline>
</glyph>
<glyph name="t_t_va-deva" format="1">
  <advance width="2263"/>
  <outline>
    <contour>
      <point x="-15" y="1262" type="line"/>
      <point x="-15" y="1129" type="line"/>
      <point x="640" y="1129" type="line"/>
      <point x="640" y="1262" type="line"/>
    </contour>
    <contour>
      <point x="582" y="1262" type="line"/>
      <point x="582" y="1129" type="line"/>
      <point x="1217" y="1129" type="line"/>
      <point x="1217" y="1262" type="line"/>
    </contour>
    <contour>
      <point x="189" y="845"/>
      <point x="74" y="750"/>
      <point x="74" y="575" type="curve" smooth="yes"/>
      <point x="74" y="366"/>
      <point x="211" y="130"/>
      <point x="337" y="-33" type="curve"/>
      <point x="461" y="51" type="line"/>
      <point x="308" y="269"/>
      <point x="234" y="422"/>
      <point x="234" y="552" type="curve" smooth="yes"/>
      <point x="234" y="660"/>
      <point x="284" y="699"/>
      <point x="445" y="699" type="curve" smooth="yes"/>
      <point x="599" y="699"/>
      <point x="671" y="666"/>
      <point x="807" y="583" type="curve"/>
      <point x="798" y="751" type="line"/>
      <point x="696" y="817"/>
      <point x="583" y="845"/>
      <point x="417" y="845" type="curve" smooth="yes"/>
    </contour>
    <contour>
      <point x="1004" y="839" type="line" smooth="yes"/>
      <point x="772" y="839"/>
      <point x="671" y="726"/>
      <point x="671" y="569" type="curve" smooth="yes"/>
      <point x="671" y="366"/>
      <point x="808" y="130"/>
      <point x="934" y="-33" type="curve"/>
      <point x="1058" y="51" type="line"/>
      <point x="905" y="269"/>
      <point x="831" y="422"/>
      <point x="831" y="546" type="curve" smooth="yes"/>
      <point x="831" y="672"/>
      <point x="899" y="695"/>
      <point x="1037" y="695" type="curve" smooth="yes"/>
      <point x="1404" y="695" type="line"/>
      <point x="1380" y="839" type="line"/>
    </contour>
    <component base="va-deva" xOffset="1174"/>
  </outline>
</glyph>
<glyph name="ta_ra-deva" format="1">
  <advance width="1024"/>
  <outline>
    <contour>
      <point x="726" y="506" type="line"/>
      <point x="736" y="592" type="line"/>
      <point x="523" y="877"/>
      <point x="418" y="926"/>
      <point x="295" y="930" type="curve" smooth="yes"/>
      <point x="196" y="933"/>
      <point x="121" y="896"/>
      <point x="57" y="857" type="curve"/>
      <point x="117" y="726" type="line"/>
      <point x="190" y="765"/>
      <point x="256" y="787"/>
      <point x="314" y="785" type="curve" smooth="yes"/>
      <point x="416" y="782"/>
      <point x="497" y="702"/>
      <point x="640" y="540" type="curve"/>
      <point x="645" y="600" type="line"/>
      <point x="136" y="241" type="line"/>
      <point x="227" y="125" type="line"/>
    </contour>
    <contour>
      <point x="823" y="-1" type="line"/>
      <point x="823" y="1156" type="line"/>
      <point x="667" y="1156" type="line"/>
      <point x="667" y="-1" type="line"/>
    </contour>
    <contour>
      <point x="1039" y="1129" type="line"/>
      <point x="1039" y="1262" type="line"/>
      <point x="-15" y="1262" type="line"/>
      <point x="-15" y="1129" type="line"/>
    </contour>
    <contour>
      <point x="746" y="1168" type="move" name="top"/>
    </contour>
    <contour>
      <point x="746" y="28" type="move" name="bottom"/>
    </contour>
    <contour>
      <point x="535" y="1168" type="move" name="topcandra"/>
    </contour>
  </outline>
</glyph>
<glyph name="tt_ttha-deva" format="1">
  <advance width="1035"/>
  <outline>
    <contour>
      <point x="623" y="1204" type="line"/>
      <point x="623" y="930" type="line"/>
      <point x="691" y="964" type="line"/>
      <point x="640" y="975"/>
      <point x="582" y="982"/>
      <point x="520" y="982" type="curve" smooth="yes"/>
      <point x="281" y="982"/>
      <point x="112" y="880"/>
      <point x="112" y="653" type="curve" smooth="yes"/>
      <point x="112" y="400"/>
      <point x="328" y="298"/>
      <point x="556" y="298" type="curve" smooth="yes"/>
      <point x="682" y="298"/>
      <point x="812" y="327"/>
      <point x="916" y="384" type="curve"/>
      <point x="871" y="504" type="line"/>
      <point x="768" y="455"/>
      <point x="662" y="428"/>
      <point x="558" y="428" type="curve" smooth="yes"/>
      <point x="334" y="428"/>
      <point x="265" y="515"/>
      <point x="265" y="647" type="curve" smooth="yes"/>
      <point x="265" y="837"/>
      <point x="444" y="859"/>
      <point x="584" y="859" type="curve" smooth="yes"/>
      <point x="651" y="859"/>
      <point x="714" y="856"/>
      <point x="772" y="852" type="curve"/>
      <point x="772" y="1204" type="line"/>
    </contour>
    <contour>
      <point x="254" y="177"/>
      <point x="74" y="56"/>
      <point x="74" y="-175" type="curve"/>
      <point x="74" y="-396"/>
      <point x="231" y="-538"/>
      <point x="532" y="-538" type="curve" smooth="yes"/>
      <point x="833" y="-538"/>
      <point x="990" y="-388"/>
      <point x="990" y="-178" type="curve"/>
      <point x="989" y="66"/>
      <point x="802" y="177"/>
      <point x="540" y="177" type="curve" smooth="yes"/>
    </contour>
    <contour>
      <point x="753" y="44"/>
      <point x="838" y="-38"/>
      <point x="838" y="-171" type="curve"/>
      <point x="838" y="-329"/>
      <point x="732" y="-404"/>
      <point x="526" y="-404" type="curve" smooth="yes"/>
      <point x="316" y="-404"/>
      <point x="228" y="-322"/>
      <point x="228" y="-187" type="curve"/>
      <point x="228" y="-31"/>
      <point x="331" y="44"/>
      <point x="541" y="44" type="curve" smooth="yes"/>
    </contour>
    <contour>
      <point x="593" y="387" type="line"/>
      <point x="593" y="90" type="line"/>
      <point x="747" y="82" type="line"/>
      <point x="747" y="387" type="line"/>
    </contour>
    <contour>
      <point x="-15" y="1262" type="line"/>
      <point x="-15" y="1129" type="line"/>
      <point x="1050" y="1129" type="line"/>
      <point x="1050" y="1262" type="line"/>
    </contour>
    <contour>
      <point x="698" y="1168" type="move" name="top"/>
    </contour>
    <contour>
      <point x="578" y="-488" type="move" name="bottom"/>
    </contour>
    <contour>
      <point x="525" y="1168" type="move" name="topcandra"/>
    </contour>
  </outline>
</glyph>
<glyph name="two.pnum" format="1">
  <advance width="1025"/>
  <outline>
    <contour>
      <point x="88" y="0" type="line" name="hr00"/>
      <point x="917" y="0" type="line"/>
      <point x="917" y="143" type="line"/>
      <point x="552" y="143" type="line"/>
      <point x="484" y="143"/>
      <point x="403" y="137"/>
      <point x="333" y="131" type="curve"/>
      <point x="638" y="457"/>
      <point x="859" y="750"/>
      <point x="859" y="996" type="curve" smooth="yes"/>
      <point x="859" y="1228"/>
      <point x="714" y="1368"/>
      <point x="473" y="1368" type="curve" smooth="yes"/>
      <point x="307" y="1368"/>
      <point x="190" y="1294"/>
      <point x="76" y="1170" type="curve"/>
      <point x="173" y="1074" type="line"/>
      <point x="247" y="1163"/>
      <point x="344" y="1233"/>
      <point x="453" y="1233" type="curve" smooth="yes"/>
      <point x="622" y="1233"/>
      <point x="697" y="1138"/>
      <point x="697" y="988" type="curve" smooth="yes"/>
      <point x="697" y="777"/>
      <point x="480" y="492"/>
      <point x="88" y="99" type="curve"/>
    </contour>
  </outline>
</glyph>
<glyph name="uni0301.cap" format="1">
  <advance width="0"/>
  <outline>
    <contour>
      <point x="267" y="1675" type="line" name="hr00"/>
      <point x="77" y="1675" type="line"/>
      <point x="-103" y="1446" type="line"/>
      <point x="36" y="1446" type="line"/>
    </contour>
    <contour>
      <point x="82" y="1050" type="move" name="_top"/>
    </contour>
  </outline>
</glyph>
<glyph name="uni03020303" format="1">
  <advance width="0"/>
  <outline>
    <contour>
      <point x="-267" y="1456" type="curve" name="hr01"/>
      <point x="-182" y="1456" type="line"/>
      <point x="-172" y="1516"/>
      <point x="-143" y="1544"/>
      <point x="-102" y="1544" type="curve" smooth="yes"/>
      <point x="-35" y="1544"/>
      <point x="4" y="1456"/>
      <point x="106" y="1456" type="curve" smooth="yes"/>
      <point x="201" y="1456"/>
      <point x="258" y="1534"/>
      <point x="267" y="1641" type="curve" name="hr02"/>
      <point x="182" y="1641" type="line"/>
      <point x="172" y="1582"/>
      <point x="143" y="1553"/>
      <point x="102" y="1553" type="curve" smooth="yes"/>
      <point x="35" y="1553"/>
      <point x="-4" y="1641"/>
      <point x="-106" y="1641" type="curve" smooth="yes"/>
      <point x="-201" y="1641"/>
      <point x="-258" y="1564"/>
    </contour>
    <contour>
      <point x="-135" y="1169" type="line"/>
      <point x="-4" y="1303" type="line"/>
      <point x="4" y="1303" type="line"/>
      <point x="135" y="1169" type="line"/>
      <point x="253" y="1169" type="line"/>
      <point x="77" y="1382" type="line"/>
      <point x="-77" y="1382" type="line"/>
      <point x="-253" y="1169" type="line"/>
    </contour>
    <contour>
      <point x="0" y="1050" type="move" name="_top"/>
    </contour>
  </outline>
</glyph>
<glyph name="v_na-deva" format="1">
  <advance width="1089"/>
  <outline>
    <contour>
      <point x="787" y="353" type="line"/>
      <point x="715" y="438" type="line"/>
      <point x="148" y="48" type="line"/>
      <point x="208" y="-58" type="line"/>
      <point x="423" y="-140" type="line"/>
      <point x="453" y="-115"/>
      <point x="465" y="-90"/>
      <point x="466" y="-67" type="curve" smooth="yes"/>
      <point x="467" y="-44"/>
      <point x="459" y="-21"/>
      <point x="445" y="0" type="curve" smooth="yes"/>
      <point x="387" y="85" type="line"/>
      <point x="370" y="29" type="line"/>
    </contour>
    <component base="va-deva"/>
  </outline>
</glyph>
<glyph name="v_ra-deva" format="1">
  <advance width="1089"/>
  <outline>
    <contour>
      <point x="770" y="338" type="line"/>
      <point x="720" y="421" type="line"/>
      <point x="150" y="68" type="line"/>
      <point x="240" y="-49" type="line"/>
    </contour>
    <component base="va-deva"/>
    <contour>
      <point x="815" y="1168" type="move" name="top"/>
    </contour>
    <contour>
      <point x="815" y="28" type="move" name="bottom"/>
    </contour>
    <contour>
      <point x="539" y="1167" type="move" name="topcandra"/>
    </contour>
  </outline>
</glyph>
<glyph name="zero.pnum" format="1">
  <advance width="1100"/>
  <outline>
    <contour>
      <point x="550" y="-25" type="curve" name="hr00" smooth="yes"/>
      <point x="832" y="-25"/>
      <point x="988" y="245"/>
      <point x="988" y="675" type="curve" smooth="yes"/>
      <point x="988" y="1105"/>
      <point x="832" y="1368"/>
      <point x="550" y="1368" type="curve" smooth="yes"/>
      <point x="269" y="1368"/>
      <point x="113" y="1108"/>
      <point x="113" y="675" type="curve" smooth="yes"/>
      <point x="113" y="245"/>
      <point x="269" y="-25"/>
    </contour>
    <contour>
      <point x="550" y="113" type="curve" smooth="yes"/>
      <point x="382" y="113"/>
      <point x="281" y="299"/>
      <point x="281" y="675" type="curve" smooth="yes"/>
      <point x="281" y="1053"/>
      <point x="382" y="1229"/>
      <point x="550" y="1229" type="curve" smooth="yes"/>
      <point x="719" y="1229"/>
      <point x="820" y="1053"/>
      <point x="820" y="675" type="curve" smooth="yes"/>
      <point x="820" y="299"/>
      <point x="719" y="113"/>
    </contour>
  </outline>
</glyph>
